<svg xmlns="http://www.w3.org/2000/svg" viewBox="0 0 480 480" id="404">
  <path fill="#1a243e" d="M374.09,248.96c0,10.49-1.21,20.68-3.51,30.47-3.52,15.07-9.61,29.14-17.78,41.75-7.86,12.15-17.65,22.93-28.94,31.93-18.26,14.54-40.44,24.37-64.68,27.67-5.93,.82-11.98,1.23-18.13,1.23-49.62,0-92.89-27.17-115.76-67.43-1.83-3.22-3.54-6.53-5.1-9.92-7.82-16.94-12.18-35.81-12.18-55.69,0-3.88,.17-7.72,.51-11.52,1.09-12.88,4.03-25.22,8.54-36.79,15.75-40.4,50.67-71.22,93.6-81.24,9.76-2.29,19.94-3.49,30.39-3.49,36.54,0,69.63,14.72,93.68,38.57,24.32,24.1,39.37,57.52,39.37,94.47Z"></path>
  <path fill="#e0e0e0" d="M352.8,321.18c-7.86,12.15-17.65,22.93-28.94,31.93-18.26,14.54-40.44,24.37-64.68,27.67-3.94-6.04-6.23-13.27-6.23-21.03,0-21.3,17.27-38.57,38.56-38.57h61.29Z"></path>
  <path fill="#e0e0e0" d="M370.58 279.43c-3.52 15.07-9.61 29.14-17.78 41.75-7.86 12.15-17.65 22.93-28.94 31.93-4.22-1.93-8.04-4.59-11.28-7.84-6.28-6.28-10.4-14.71-11.16-24.09-.09-1.04-.13-2.11-.13-3.18 0-21.31 17.27-38.57 38.56-38.57h30.74ZM334.72 154.5h-85.67c-10.65 0-20.29-4.31-27.27-11.29-6.21-6.21-10.31-14.53-11.14-23.79 9.76-2.29 19.94-3.49 30.39-3.49 36.54 0 69.63 14.72 93.68 38.57ZM164.81 276.02c0 21.3-17.28 38.56-38.57 38.56h-.95c-1.83-3.22-3.54-6.53-5.1-9.92-7.82-16.94-12.18-35.81-12.18-55.69 0-3.88.17-7.72.51-11.52h17.73c10.64 0 20.3 4.32 27.27 11.29 6.98 6.98 11.3 16.63 11.3 27.28Z"></path>
  <path fill="#fff" d="M377.32,171.95c-.02-.16-.07-.33-.1-.48-.09-.48-.21-.97-.38-1.44,1.85-13.18-.93-27.16-7.52-38.44-.94-1.62-1.95-3.17-3.05-4.66-.44-.61-.9-1.21-1.37-1.81-1.4-1.77-2.92-3.48-4.54-5.09-3.51-3.5-7.38-6.47-11.47-8.87-.82-.48-1.65-.94-2.48-1.38-8.37-4.38-17.6-6.56-26.83-6.53-1.84,0-3.69,.09-5.52,.27-.92,.09-1.84,.2-2.75,.34-2.74,.4-5.47,1-8.14,1.8-1.78,.53-3.55,1.15-5.28,1.85-6.94,2.82-12.69,7.52-18.3,13.15-6.87,6.89-11.71,15.02-14.38,24.1-.98,3.3-1.25,6.1-1.62,9.56-.09,.86-.63,2.6-.68,3.48-11.26,7.42-56.42,37.35-70.91,63.67-.27,.48-.53,.98-.77,1.46-1.48,2.91-2.58,5.76-3.21,8.51-.31,1.38-.52,2.73-.58,4.06-.28,5.44,.38,10.43,1.67,14.95,.77,2.71,1.76,5.25,2.92,7.62,.38,.79,.79,1.56,1.2,2.31,.83,1.5,1.72,2.94,2.64,4.3,.46,.67,.93,1.34,1.41,1.98,1.92,2.56,4.48,5.38,6.44,7.33-5.29,5.48-7.03,11.97-4.08,19.13,.46,1.1,1.01,2.2,1.66,3.3,.33,.55,.67,1.1,1.06,1.65,6.79,9.92,14.94,20.26,23.84,21.82,.36,.06,.72,.11,1.08,.15,.36,.03,.72,.06,1.07,.06,.56,0,1.13-.03,1.68-.13,2.97,4.1,5.76,7.44,8.42,10.09,1.59,1.58,3.14,2.92,4.66,4.02,1.76,1.28,3.49,2.23,5.16,2.87,1.67,.64,3.31,.97,4.89,.97s3.1-.31,4.57-.95c.29-.12,.58-.27,.88-.42,.58-.3,1.16-.65,1.72-1.06,.34-.25,.66-.49,.97-.74s.59-.49,.86-.74c.54-.49,1.01-1,1.43-1.5,.42-.51,.77-1.01,1.08-1.5,.76-1.25,1.2-2.48,1.41-3.63,.04-.22,.08-.46,.11-.68,.11-.89-.67-1.54-.75-2.28-.36-3.29-2.29-6.15-4.77-8.88,3.26-2.47,20.2-15.31,28.05-26.77,3.04,.83,6.62,1.49,10.35,1.49,.98,0,1.96-.04,2.95-.15,.49-.04,.99-.11,1.48-.19,2.48-.38,4.95-1.13,7.31-2.38,.51-.27,1-.55,1.48-.85,1.45-.92,2.78-2.01,4-3.27,2.84-2.94,5.06-6.8,6.66-11.59,.45-1.37,.85-2.81,1.21-4.31,.53-2.27,.93-4.7,1.22-7.3,.54-4.8,.98-9.26,1.31-13.34,.51-6.11,.76-11.37,.8-15.73,.02-2.9-.07-5.4-.26-7.48-.1-1.03-.33-2.97-.47-3.81,1.03,.17,2.41,.61,3.63,.72,1.2,.1,2.83,0,4.18,0l-.49,.89c2.53,0,5.05-1.54,7.94-2.1,.57-.11,1.99,.15,2.58,0,1.18-.28,1.98-.61,3.19-1.01,1.21-.4,2.57-.89,3.79-1.44,1.84-.83,3.37-.91,5.23-2.1,1.25-.8,2.48-1.68,3.73-2.66,.62-.49,1.23-1.01,1.85-1.55,3.08-2.71,5.56-5.51,7.54-8.33,1-1.41,1.87-2.83,2.64-4.23,5.89-10.8,5.44-21.18,4.75-26.09v-.03Z"></path>
  <path fill="none" stroke="#1a243e" stroke-linecap="round" stroke-linejoin="round" stroke-width="2.42" d="M128.13 105.95s-.43-9.59 5.21-12.81M123.36 105.31l-1.34-10.59"></path>
  <path fill="none" stroke="#ff0041" stroke-linecap="round" stroke-linejoin="round" stroke-width="14.99" d="M198.89,193.15s8.86-41.13-30.34-46.05c-39.2-4.92-42.87-39.07-42.87-39.07"></path>
  <path fill="#ff0041" d="M189.9,228.08l-2.91-3.86c-8.35-11.09-7.29-26.65,2.51-36.48l36.75-36.89c4.97-5,12.86-5.56,18.49-1.31l14.38,10.83s-43.28,31.51-53.44,44.24c-10.16,12.74-15.81,23.47-15.81,23.47h.01Z"></path>
  <path fill="none" stroke="#1a243e" stroke-linecap="round" stroke-linejoin="round" stroke-width="2.42" d="M319.39,217.28c-11.33-.25-22.59-3.84-32.17-10.8-2.4-1.73-4.68-3.67-6.84-5.81-22.31-22.23-22.37-58.34-.15-80.65,22.23-22.31,58.33-22.38,80.64-.16,2.16,2.14,4.1,4.42,5.84,6.81,9,12.3,12.52,28.53,10.42,42.97"></path>
  <path fill="none" stroke="#1a243e" stroke-linecap="round" stroke-linejoin="round" stroke-width="2.42" d="M263.68,157.32c-12.1,7.96-73.99,50.02-75.46,78.44-.92,17.68,8.23,30.46,16.43,38.27"></path>
  <path fill="none" stroke="#1a243e" stroke-linecap="round" stroke-linejoin="round" stroke-width="2.42" d="M225.25,291.36c12.1,5.26,21.6,17.79,9.67,26.36-11.93,8.57-25.16-9.79-31.83-19.5-6.66-9.7-4.55-18.56,1.57-24.21,6.31-5.84,8.7-8.4,15.1-14.78"></path>
  <path fill="none" stroke="#1a243e" stroke-linecap="round" stroke-linejoin="round" stroke-width="2.42" d="M250.31 309.33c12.1 5.26 21.6 17.79 9.67 26.36-10.61 7.61-22.25-6.06-29.38-16.01M257.58 274.24c-10.47 12.25-22.56 22.49-22.56 22.49M252.08 226.78c6.62 1.53 13.74 5.04 17.7 12.78 2.16 4.22 1.04 9.71-1.85 15.6M288.84 288.07c-8.43 12.82-28.14 27.45-28.14 27.45"></path>
  <path fill="none" stroke="#1a243e" stroke-linecap="round" stroke-linejoin="round" stroke-width="2.42" d="M270.37 248.67c10.33-.13 25.3 1.7 30.84 12.49M267.93 255.16c24.2 14.75 8.61 31.79-4.43 21.98-13.74-10.34-66.65-24.57-31.03-71.52"></path>
  <path fill="none" stroke="#1a243e" stroke-linecap="round" stroke-linejoin="round" stroke-width="2.42" d="M265.18 206.53s-31.61 31.08-1.49 46.28c1.53.77 2.94 1.56 4.24 2.35M287 250.63l7.97-6.8c1.73-1.48 2.71-1.55 3.94.37 5.13 9.35 3.66 15.32 2.3 16.96-1.36 1.64-3.47 6.68-14.21 2.08-1.27-.54-2.59-.95-3.96-1.13-1.91-.26-4.28-.18-5.42 1.39"></path>
  <path fill="none" stroke="#1a243e" stroke-linecap="round" stroke-linejoin="round" stroke-width="2.42" d="M326.29 219.36c1.15 3.78 1.95 13.95-1.09 41.13-5.09 45.34-44.36 24.42-44.36 24.42 0 0-6.39-3.33-6.77-5.2M238.25 154.07c3.66 3.87 6.43 8.61 7.69 14.77"></path>
  <path fill="none" stroke="#1a243e" stroke-linecap="round" stroke-linejoin="round" stroke-width="2.42" d="M308.87,140.11c5.19-3.47,10.7-5.44,15.62-5.46,15.71-.03,44.16,25.39,50.58,31.84,1.39,1.39,2.31,3.19,2.58,5.13,.98,6.86,1.38,23.86-14.68,37.98-20.66,18.15-43.58,7.67-43.58,7.67,0,0-28.3-14.21-30.31-38.31-.61-7.33,.98-14.3,3.91-20.44"></path>
  <path fill="none" stroke="#1a243e" stroke-linecap="round" stroke-linejoin="round" stroke-width="2.42" d="M295.67 158.77c7.73 0 14-6.27 14-14s-6.27-14-14-14-14 6.27-14 14 6.27 14 14 14ZM214.63 162.52l-26.36 26.55M198.09 179.18l9.97 10.6M120.64 104.94l-7.86-6.39M140.68 124.49c-5.94.48-10.22 2.85-12.62 7.33M179.87 143.22c-1.96 5.24-2.33 9.05-1.82 13.39"></path>
  <path fill="#ff0041" d="m180.5 288.43-7.4-3.61-.36-8.23c-.02-.61-.85-.76-1.11-.21l-3.37 7.45-8.14.36c-.61.02-.76.85-.21 1.11l7.38 3.33.11 8.09c0 .61.83.8 1.1.25l3.57-7.33 8.18-.11c.61 0 .8-.83.25-1.1ZM386.23 355.3l-7.11-3.47-.35-7.9c-.02-.58-.82-.74-1.07-.2l-3.23 7.16-7.81.34c-.58.02-.74.82-.2 1.07l7.08 3.2.1 7.77c0 .58.8.76 1.06.24l3.44-7.03 7.85-.1c.58 0 .76-.8.24-1.06h.01ZM138.99 379.32l-9.4-4.58-.45-10.44c-.03-.77-1.09-.98-1.4-.27l-4.28 9.46-10.34.45c-.77.03-.98 1.09-.27 1.4l9.36 4.23.13 10.27c0 .77 1.06 1.01 1.39.31l4.54-9.3 10.38-.13c.77 0 1.01-1.06.31-1.39v-.02ZM76.65 241.04l-5.21-2.55-.25-5.79c-.02-.43-.61-.54-.77-.15l-2.37 5.25-5.74.25c-.43.02-.54.61-.15.77l5.2 2.35.08 5.7c0 .43.58.56.77.17l2.51-5.16 5.76-.08c.43 0 .56-.58.17-.77h-.01ZM381.34 117.17l-5.21-2.55-.25-5.79c-.02-.43-.61-.54-.77-.15l-2.37 5.25-5.74.25c-.43.02-.54.61-.15.77l5.2 2.35.08 5.7c0 .43.58.56.77.17l2.51-5.16 5.76-.08c.43 0 .56-.58.17-.77h-.01Z"></path>
</svg>
