<svg xmlns="http://www.w3.org/2000/svg" viewBox="0 0 24 24"><path fill="#ff6e40" d="M20 21.75H18A1.76 1.76 0 0116.25 20V11A1.76 1.76 0 0118 9.25h2A1.76 1.76 0 0121.75 11v9A1.76 1.76 0 0120 21.75zm-2-11a.25.25 0 00-.25.25v9a.25.25 0 00.25.25h2a.25.25 0 00.25-.25V11a.25.25 0 00-.25-.25zM13 21.75H11A1.76 1.76 0 019.25 20V15A1.76 1.76 0 0111 13.25h2A1.76 1.76 0 0114.75 15v5A1.76 1.76 0 0113 21.75zm-2-7a.25.25 0 00-.25.25v5a.25.25 0 00.25.25h2a.25.25 0 00.25-.25V15a.25.25 0 00-.25-.25zM6 21.75H4A1.76 1.76 0 012.25 20V11A1.76 1.76 0 014 9.25H6A1.76 1.76 0 017.75 11v9A1.76 1.76 0 016 21.75zm-2-11a.25.25 0 00-.25.25v9a.25.25 0 00.25.25H6A.25.25 0 006.25 20V11A.25.25 0 006 10.75z"/><path fill="#000" d="M21,2.25H18a.75.75,0,0,0,0,1.5h1.08L12.15,9a.24.24,0,0,1-.3,0L4.45,3.4a.75.75,0,1,0-.9,1.2L11,10.15a1.75,1.75,0,0,0,2.1,0l7.2-5.4V6a.75.75,0,0,0,1.5,0V3A.76.76,0,0,0,21,2.25Z"/></svg>
