<svg xmlns="http://www.w3.org/2000/svg" viewBox="0 0 24 24"><path fill="#f25220" d="M11.5,14.63a.76.76,0,0,1-.75-.75v-.34a3,3,0,0,1,2.09-2.9,1.33,1.33,0,0,0,.91-1.26,1.75,1.75,0,1,0-3.5,0,.75.75,0,1,1-1.5,0,3.25,3.25,0,1,1,6.5,0,2.83,2.83,0,0,1-1.94,2.68,1.56,1.56,0,0,0-1.06,1.48v.34A.76.76,0,0,1,11.5,14.63Z"/><circle cx="11.5" cy="16.38" r=".75" fill="#f25220"/><path d="M4,20.75a.74.74,0,0,1-.74-.84l.52-4.17a9.27,9.27,0,1,1,5,4.42l-4.67.58Zm4.86-2.11a.63.63,0,0,1,.27.06,7.91,7.91,0,0,0,2.87.55,7.76,7.76,0,1,0-6.79-4,.81.81,0,0,1,.08.46l-.43,3.45,3.9-.49Z"/></svg>