<svg xmlns="http://www.w3.org/2000/svg" viewBox="0 0 24 24"><path fill="#f25220" d="M19,9.75H5a.75.75,0,0,1,0-1.5H19a.75.75,0,0,1,0,1.5Z"/><path d="M18,4.25H6A1.76,1.76,0,0,0,4.25,6V8.06A16.72,16.72,0,0,1,3,14.66l-.26.79a1.73,1.73,0,0,0,1.52,2.28V19A1.76,1.76,0,0,0,6,20.75H18A1.76,1.76,0,0,0,19.75,19V6A1.76,1.76,0,0,0,18,4.25ZM4.15,15.92l.26-.78A18.42,18.42,0,0,0,5.75,8.06V6A.25.25,0,0,1,6,5.75H18a.25.25,0,0,1,.25.25V8.06A16.72,16.72,0,0,1,17,14.66l-.47,1.42a.26.26,0,0,1-.24.17H4.39a.26.26,0,0,1-.21-.1A.31.31,0,0,1,4.15,15.92ZM18,19.25H6A.25.25,0,0,1,5.75,19V17.75H16.28a1.75,1.75,0,0,0,1.66-1.2l.31-.93V19A.25.25,0,0,1,18,19.25Z"/><path fill="#f25220" d="M16 6.75A.76.76 0 0115.25 6V4a.75.75 0 011.5 0V6A.76.76 0 0116 6.75zM12 6.75A.76.76 0 0111.25 6V4a.75.75 0 011.5 0V6A.76.76 0 0112 6.75zM8 6.75A.76.76 0 017.25 6V4a.75.75 0 011.5 0V6A.76.76 0 018 6.75z"/></svg>