<svg xmlns="http://www.w3.org/2000/svg" viewBox="0 0 24 24"><path d="M20,3.25H9A1.76,1.76,0,0,0,7.25,5V7.25H4A1.76,1.76,0,0,0,2.25,9v7A1.76,1.76,0,0,0,4,17.75H5.25V20a.75.75,0,0,0,.42.67.76.76,0,0,0,.33.08.74.74,0,0,0,.45-.15l3.8-2.85H15A1.76,1.76,0,0,0,16.75,16v-.75l1.8,1.35a.74.74,0,0,0,.45.15.76.76,0,0,0,.33-.08.75.75,0,0,0,.42-.67V13.75H20A1.76,1.76,0,0,0,21.75,12V5A1.76,1.76,0,0,0,20,3.25ZM15.25,16a.25.25,0,0,1-.25.25H10a.74.74,0,0,0-.45.15l-2.8,2.1V17A.76.76,0,0,0,6,16.25H4A.25.25,0,0,1,3.75,16V9A.25.25,0,0,1,4,8.75H15a.25.25,0,0,1,.25.25Zm5-4a.25.25,0,0,1-.25.25H19a.76.76,0,0,0-.75.75v1.5l-1.5-1.12V9A1.76,1.76,0,0,0,15,7.25H8.75V5A.25.25,0,0,1,9,4.75H20a.25.25,0,0,1,.25.25Z"/><path fill="#f25220" d="M9,14.75a.74.74,0,0,1-.53-.22l-2-2a.75.75,0,0,1,1.06-1.06L9,12.94l2.47-2.47a.75.75,0,0,1,1.06,1.06l-3,3A.74.74,0,0,1,9,14.75Z"/></svg>