<svg xmlns="http://www.w3.org/2000/svg" viewBox="0 0 24 24"><path d="M19,8.25h-.54a7.22,7.22,0,0,0-12.92,0H5A2.75,2.75,0,0,0,2.25,11v2A2.75,2.75,0,0,0,5,15.75H6A.76.76,0,0,0,6.75,15V9.18l.13-.27a5.73,5.73,0,0,1,10.24,0l.13.27v5.7a4.51,4.51,0,0,1-4.37,3.37H12a.75.75,0,0,0,0,1.5h.88a6,6,0,0,0,5.65-4H19A2.75,2.75,0,0,0,21.75,13V11A2.75,2.75,0,0,0,19,8.25Zm-13.75,6H5A1.25,1.25,0,0,1,3.75,13V11A1.25,1.25,0,0,1,5,9.75h.25Zm15-1.25A1.25,1.25,0,0,1,19,14.25h-.25V9.75H19A1.25,1.25,0,0,1,20.25,11Z"/><path fill="#f25220" d="M15,8.29a4.8,4.8,0,0,0-4.05-.92,4.75,4.75,0,0,0-3,7.09l-.23,1.18a1.71,1.71,0,0,0,.71,1.77,1.68,1.68,0,0,0,1,.32,1.72,1.72,0,0,0,.9-.25l1.27-.76a2.73,2.73,0,0,0,.41,0,4.75,4.75,0,0,0,3-8.46Zm-3,7a2.79,2.79,0,0,1-.46-.05.8.8,0,0,0-.5.1l-1.49.89a.22.22,0,0,1-.27,0,.22.22,0,0,1-.1-.25l.29-1.48a.71.71,0,0,0-.12-.58,3.23,3.23,0,0,1-.49-2.72,3.27,3.27,0,0,1,2.39-2.32A3.65,3.65,0,0,1,12,8.75a3.28,3.28,0,0,1,2,.71,3.25,3.25,0,0,1-2,5.79Z"/><circle cx="14" cy="12" r=".75" fill="#f25220"/><circle cx="12" cy="12" r=".75" fill="#f25220"/><circle cx="10" cy="12" r=".75" fill="#f25220"/></svg>