<svg xmlns="http://www.w3.org/2000/svg" viewBox="0 0 24 24"><path fill="#f25220" d="M21.69,11.71a.78.78,0,0,0-.16-.24l-2-2a.75.75,0,0,0-1.06,1.06l.72.72H14a.75.75,0,0,0,0,1.5h5.19l-.72.72a.75.75,0,0,0,0,1.06.75.75,0,0,0,1.06,0l2-2a.78.78,0,0,0,.16-.24A.73.73,0,0,0,21.69,11.71Z"/><path d="M18,7.75A.76.76,0,0,0,18.75,7V5A1.76,1.76,0,0,0,17,3.25H11.41a1.83,1.83,0,0,0-.33-.35,1.75,1.75,0,0,0-1.5-.32l-6,1.5a1.75,1.75,0,0,0-1.33,1.7V18.22a1.75,1.75,0,0,0,1.33,1.7l6,1.5a2,2,0,0,0,.42,0,1.76,1.76,0,0,0,1.08-.37,1.83,1.83,0,0,0,.33-.35H17A1.76,1.76,0,0,0,18.75,19V17a.75.75,0,0,0-1.5,0v2a.25.25,0,0,1-.25.25H11.75V4.75H17a.25.25,0,0,1,.25.25V7A.76.76,0,0,0,18,7.75ZM9.94,20l-6-1.5a.26.26,0,0,1-.19-.24V5.78a.26.26,0,0,1,.19-.24l6-1.5H10a.25.25,0,0,1,.25.25V19.72a.24.24,0,0,1-.1.2A.25.25,0,0,1,9.94,20Z"/></svg>