<svg xmlns="http://www.w3.org/2000/svg" viewBox="0 0 24 24"><path  fill="#ff6e40" d="M21,20.25h-.75V12a1.76,1.76,0,0,0-1.75-1.75h-1A1.76,1.76,0,0,0,15.75,12v8.25h-1.5V14a1.76,1.76,0,0,0-1.75-1.75h-1A1.76,1.76,0,0,0,9.75,14v6.25H8.25V16A1.76,1.76,0,0,0,6.5,14.25h-1A1.76,1.76,0,0,0,3.75,16v4.25H3a.75.75,0,0,0,0,1.5H21a.75.75,0,0,0,0-1.5ZM17.25,12a.25.25,0,0,1,.25-.25h1a.25.25,0,0,1,.25.25v8.25h-1.5Zm-6,2a.25.25,0,0,1,.25-.25h1a.25.25,0,0,1,.25.25v6.25h-1.5Zm-6,2a.25.25,0,0,1,.25-.25h1a.25.25,0,0,1,.25.25v4.25H5.25Z"/><path fill="#000" d="M19.74,4a.41.41,0,0,0,0-.16.65.65,0,0,0,0-.13.34.34,0,0,0-.07-.11l-.1-.12,0,0-.09,0-.14-.08-.15,0-.1,0H16a.75.75,0,0,0,0,1.5h1.31A22.2,22.2,0,0,1,6.21,11l-1.37.31a.74.74,0,0,0-.57.89.76.76,0,0,0,.73.59l.16,0,1.38-.3A23.85,23.85,0,0,0,18.25,5.94V7a.75.75,0,0,0,1.5,0V4Z"/></svg>
