<svg xmlns="http://www.w3.org/2000/svg" viewBox="0 0 24 24"><path fill="#000" d="M14.25,6.57A2.69,2.69,0,0,0,14.75,5a2.75,2.75,0,0,0-5.5,0,2.69,2.69,0,0,0,.5,1.57A2.72,2.72,0,0,0,8.25,9v2a.76.76,0,0,0,.75.75h6a.76.76,0,0,0,.75-.75V9A2.72,2.72,0,0,0,14.25,6.57ZM12,3.75A1.25,1.25,0,1,1,10.75,5,1.25,1.25,0,0,1,12,3.75Zm2.25,6.5H9.75V9A1.25,1.25,0,0,1,11,7.75h2A1.25,1.25,0,0,1,14.25,9Z"/><path  fill="#ff6e40" d="M20.85,12a2.75,2.75,0,1,0-4.6-2,3,3,0,0,0,.11.73,1.76,1.76,0,0,0-1.18-.48H8.82a1.76,1.76,0,0,0-1.18.48A3,3,0,0,0,7.75,10a2.75,2.75,0,1,0-4.6,2,2.9,2.9,0,0,0-.9,2.09V19A1.76,1.76,0,0,0,4,20.75H5.65a1.65,1.65,0,0,0,.22.36,1.75,1.75,0,0,0,1.35.64h9.56a1.75,1.75,0,0,0,1.35-.64,1.65,1.65,0,0,0,.22-.36H20A1.76,1.76,0,0,0,21.75,19V14.11A2.9,2.9,0,0,0,20.85,12ZM19,8.75A1.25,1.25,0,1,1,17.75,10,1.25,1.25,0,0,1,19,8.75ZM17.12,12l-.05.05-.08.09-.07-.36Zm-10-.22L7,12.14l-.08-.09,0-.05ZM5,8.75A1.25,1.25,0,1,1,3.75,10,1.25,1.25,0,0,1,5,8.75ZM3.75,19V14.11a1.32,1.32,0,0,1,1.1-1.35,1.28,1.28,0,0,1,1,.37,1.23,1.23,0,0,1,.36.87v1.25A.76.76,0,0,0,7,16H8.75a.5.5,0,0,1,0,1H6a.75.75,0,0,0-.25,1.45l-.16.8H4A.25.25,0,0,1,3.75,19ZM17,20.16a.26.26,0,0,1-.19.09H7.22A.26.26,0,0,1,7,20.16.24.24,0,0,1,7,20l.28-1.45H8.75a2,2,0,0,0,0-4H8.06l.52-2.56a.24.24,0,0,1,.24-.19h6.36a.24.24,0,0,1,.24.2l.52,2.55h-.69a2,2,0,0,0,0,4h1.49L17,19.94A.26.26,0,0,1,17,20.16ZM20.25,19a.25.25,0,0,1-.25.25H18.41l-.16-.8A.75.75,0,0,0,18,17H15.25a.5.5,0,0,1,0-1H17a.76.76,0,0,0,.75-.75V14a1.25,1.25,0,0,1,.34-.86l.1-.08a1.21,1.21,0,0,1,1-.3,1.32,1.32,0,0,1,1.1,1.35Z"/></svg>
