<svg xmlns="http://www.w3.org/2000/svg" viewBox="0 0 24 24"><path fill="#000" d="M14,20a2.18,2.18,0,0,1-1.53-.63A2.12,2.12,0,0,1,11.85,18a2.1,2.1,0,0,1-1.38-.62A2.12,2.12,0,0,1,9.85,16a2.1,2.1,0,0,1-1.38-.62A2.12,2.12,0,0,1,7.85,14a2.1,2.1,0,0,1-1.38-.62,2.19,2.19,0,0,1,0-3.07l2-2a.75.75,0,0,1,1.06,0,.77.77,0,0,1,0,1.07l-2,2a.62.62,0,0,0-.19.46.63.63,0,0,0,.19.47.68.68,0,0,0,.94,0l1-1a.75.75,0,0,1,1.06,0,.76.76,0,0,1,0,1.07l-1,1a.62.62,0,0,0-.19.46.63.63,0,0,0,.19.47.68.68,0,0,0,.94,0l1-1a.75.75,0,0,1,1.06,0,.76.76,0,0,1,0,1.07l-1,1a.62.62,0,0,0-.19.46.63.63,0,0,0,.19.47.68.68,0,0,0,.94,0l1-1a.75.75,0,0,1,1.06,0,.76.76,0,0,1,0,1.07l-1,1a.62.62,0,0,0-.19.46.63.63,0,0,0,.19.47.65.65,0,0,0,.94,0l3-3A.75.75,0,0,1,18,15h2a.25.25,0,0,0,.25-.25v-7A.25.25,0,0,0,20,7.54H16A.75.75,0,0,1,16,6h4a1.76,1.76,0,0,1,1.75,1.75v7A1.75,1.75,0,0,1,20,16.54H18.31l-2.78,2.79A2.18,2.18,0,0,1,14,20Z"/><path  fill="#ff6e40" d="M17.9,10.74a2.38,2.38,0,0,1-1.45,1.36.19.19,0,0,1-.1,0,2.29,2.29,0,0,1-.68.1,2.37,2.37,0,0,1-2-1.06L12.6,9.54H9a.75.75,0,0,1-.75-.75.77.77,0,0,1,.22-.53.74.74,0,0,1,.38-.2L9,8h4a.75.75,0,0,1,.62.34l1.31,2a.91.91,0,0,0,1,.35l.08,0a.9.9,0,0,0,.48-.48.87.87,0,0,0,0-.74L15.33,7.13l0,0-.43-.84a1.27,1.27,0,0,0-1.13-.7H9.25a1.27,1.27,0,0,0-1.13.7l-.45.89A.74.74,0,0,1,7,7.54H4a.25.25,0,0,0-.25.25v7A.25.25,0,0,0,4,15H6a.75.75,0,0,1,.53.22l1.41,1.42a1.23,1.23,0,0,0,.89.36h1.4a2.17,2.17,0,0,0,.24.29,2.1,2.1,0,0,0,1.38.62,1.74,1.74,0,0,0,.13.59H8.83a2.73,2.73,0,0,1-1.95-.8l-1.19-1.2H4a1.75,1.75,0,0,1-1.75-1.75v-7A1.76,1.76,0,0,1,4,6H6.54l.24-.47A2.75,2.75,0,0,1,9.25,4h4.5a2.75,2.75,0,0,1,2.47,1.53l.24.47.21.42.54,1.08.61,1.23A2.38,2.38,0,0,1,17.9,10.74Z"/></svg>
