<svg xmlns="http://www.w3.org/2000/svg" viewBox="0 0 24 24"><path fill="#000" d="M12,21.75a1.74,1.74,0,0,1-1-.3L3.1,15.9a1.72,1.72,0,0,1-.72-1.4,1.73,1.73,0,0,1,.71-1.4l2.45-1.71a.75.75,0,1,1,.86,1.22L4,14.32a.24.24,0,0,0-.08.18.22.22,0,0,0,.09.18l7.91,5.54a.2.2,0,0,0,.24,0L20,14.68a.25.25,0,0,0,.09-.18.24.24,0,0,0-.1-.18L17.6,12.61a.75.75,0,1,1,.86-1.22L20.9,13.1a1.73,1.73,0,0,1,.73,1.4,1.74,1.74,0,0,1-.72,1.4L13,21.44A1.68,1.68,0,0,1,12,21.75Z"/><path  fill="#ff6e40" d="M12,16.75a1.68,1.68,0,0,1-1-.31L3.1,10.9a1.72,1.72,0,0,1,0-2.8L11,2.56h0a1.72,1.72,0,0,1,2,0L20.9,8.1a1.71,1.71,0,0,1,0,2.8L13,16.44A1.68,1.68,0,0,1,12,16.75Zm-.12-13L4,9.33a.22.22,0,0,0,0,.34l7.92,5.54a.21.21,0,0,0,.24,0L20,9.67a.21.21,0,0,0,0-.34L12.12,3.79a.21.21,0,0,0-.24,0Z"/></svg>
