<svg xmlns="http://www.w3.org/2000/svg" viewBox="0 0 706.59 262.29" id="leftline"><defs><style> .cls-1 { fill: none; stroke: #ff6e40; stroke-linecap: round; stroke-linejoin: round; stroke-width: 3px; } </style></defs><path class="cls-1" d="M1.5,34.93C17.5,31.3,31.57,22.19,46,14.43S76.44,0,92.73,1.8,125,16.85,124.6,33.24c-.4,15.86-14.79,27.45-28.45,35.51S67,85,61.48,99.87c-5.9,15.89,4,35.74,20.2,40.62,24.61,7.41,50.27-16.61,75.16-10.16,21.83,5.65,31.5,33.71,24.53,55.16s-25.53,36.94-44.45,49.22c-8.59,5.58-17.78,10.87-28,12.09s-21.58-2.63-26.53-11.6C74,220,88,202,102.08,191.85c34.68-25,81.08-38,120.92-22.51,16.88,6.57,31.54,17.75,47.68,26A150.32,150.32,0,0,0,392,201.2a150.2,150.2,0,0,0,85-86.77c4.51-12.24,6.55-28-3.32-36.55-4.62-4-11-5.41-17.05-5.86-29.63-2.2-59.58,17.15-69.73,45.07-7.81,21.44-3.34,47.89,13.84,62.91,18.95,16.56,47.83,16,71.59,7.69s44.78-23,68-32.59c17.4-7.2,38.76-11,54,0,7.79,5.63,12.78,14.44,15.71,23.6,5.54,17.32,4.15,37-4.79,52.81s-25.56,27.37-43.66,29.1c-7.73.74-16.32-.6-21.52-6.37-7-7.82-5-20.18-.87-29.86C552.87,192.53,586,170,620.66,169s69,19.64,84.43,50.67"></path></svg>
