<svg xmlns="http://www.w3.org/2000/svg" viewBox="0 0 24 24"><path  fill="#EEEEEE" d="M21,12.75H8a.75.75,0,0,1,0-1.5H21a.75.75,0,0,1,0,1.5Z"/><path fill="#f25220" d="M5,12.75H3a.75.75,0,0,1,0-1.5H5a.75.75,0,0,1,0,1.5Z"/><path  fill="#EEEEEE" d="M21,17.75H8a.75.75,0,0,1,0-1.5H21a.75.75,0,0,1,0,1.5Z"/><path fill="#f25220" d="M5,17.75H3a.75.75,0,0,1,0-1.5H5a.75.75,0,0,1,0,1.5Z"/><path  fill="#EEEEEE" d="M21,7.75H8a.75.75,0,0,1,0-1.5H21a.75.75,0,0,1,0,1.5Z"/><path fill="#f25220" d="M5,7.75H3a.75.75,0,0,1,0-1.5H5a.75.75,0,0,1,0,1.5Z"/></svg>
