<svg xmlns="http://www.w3.org/2000/svg" viewBox="0 0 24 24"><path  fill="#ff6e40" d="M17,21.75H11A1.76,1.76,0,0,1,9.25,20V18.75H7A1.76,1.76,0,0,1,5.25,17V15.54l-1.13-.38a1.75,1.75,0,0,1-.82-2.74l1-1.23q0-.34,0-.69A8.25,8.25,0,1,1,20,14a12.11,12.11,0,0,0-1.24,5.15V20A1.76,1.76,0,0,1,17,21.75Zm-4.51-18A7.34,7.34,0,0,0,11,3.92a6.74,6.74,0,0,0-5.2,6.58,7.34,7.34,0,0,0,0,.81.78.78,0,0,1-.15.57L4.48,13.35a.27.27,0,0,0-.05.23.27.27,0,0,0,.16.16l1.65.55a.75.75,0,0,1,.51.71v2a.25.25,0,0,0,.25.25h3a.76.76,0,0,1,.75.75v2a.25.25,0,0,0,.25.25h6a.25.25,0,0,0,.25-.25v-.89a13.49,13.49,0,0,1,1.38-5.79,6.63,6.63,0,0,0,.62-2.82,6.75,6.75,0,0,0-6.76-6.75Z"/><path fill="#000" d="M16.25,8.5a3.75,3.75,0,0,0-7.5,0,3.71,3.71,0,0,0,1.5,3V13a2.25,2.25,0,0,0,4.5,0V11.48A3.71,3.71,0,0,0,16.25,8.5Zm-3,4.5a.75.75,0,0,1-1.5,0v-.83a3.56,3.56,0,0,0,1.5,0ZM13,10.69v-1l.85-.86a.49.49,0,0,0-.7-.7l-.65.64-.65-.64a.49.49,0,0,0-.7.7l.85.86v1a2.25,2.25,0,1,1,1,0Z"/></svg>
