<svg xmlns="http://www.w3.org/2000/svg" width="1500" height="1500" fill="none" viewBox="0 0 1500 1500"><g clip-path="url(#clip0_1871_5495)"><rect width="1500" height="1500" fill="none"/><g filter="url(#filter0_dii_1871_5495)"><rect width="992.231" height="734.508" x="278.029" y="292" fill="#fff" rx="46.309"/></g><rect width="923.505" height="657.192" x="312.393" y="330.658" fill="url(#paint0_linear_1871_5495)" rx="42.171"/><path fill="#3221FA" fill-rule="evenodd" d="M742.454 637.997C624.879 637.997 529.337 732.334 527.391 849.446C527.358 851.451 525.736 853.09 523.731 853.09H438.42C436.415 853.09 434.788 851.449 434.811 849.444C436.765 681.206 573.753 545.426 742.454 545.426C911.155 545.426 1048.14 681.206 1050.1 849.444C1050.12 851.449 1048.49 853.09 1046.49 853.09H961.177C959.172 853.09 957.55 851.451 957.517 849.446C955.571 732.334 860.029 637.997 742.454 637.997Z" clip-rule="evenodd"/><path fill="#E8E5FC" fill-rule="evenodd" d="M957.549 853.092C957.549 768.41 908.619 695.071 837.279 659.963L878.154 576.904C979.926 626.988 1050.12 731.799 1050.12 853.092H957.549Z" clip-rule="evenodd"/><rect width="70.874" height="19.329" x="439.105" y="369.316" fill="#AEACF6" rx="9.665"/><rect width="45.101" height="19.329" x="915.893" y="369.316" fill="#AEACF6" rx="9.665"/><rect width="123.353" height="19.329" x="679.805" y="880.467" fill="#AEACF6" rx="9.665" transform="rotate(.466 679.805 880.467)"/><path fill="#D9D9FE" d="M708.158 914.846C708.158 912.484 710.073 910.568 712.435 910.568L770.365 910.568C772.728 910.568 774.643 912.484 774.643 914.846V914.846C774.643 917.208 772.728 919.124 770.365 919.124L741.4 919.124L712.435 919.124C710.073 919.124 708.158 917.208 708.158 914.846V914.846Z"/><rect width="115.975" height="10.738" x="439.105" y="405.828" fill="#DDDCFE" rx="5.369"/><rect width="77.317" height="10.738" x="915.893" y="405.828" fill="#DDDCFE" rx="5.369"/><g filter="url(#filter1_dii_1871_5495)"><rect width="313.562" height="379.031" x="1027.57" y="725.832" fill="#fff" rx="44.197"/></g><path stroke="#E194CE" stroke-linecap="round" stroke-width="24.12" d="M1085.56 865.43V1026.51"/><path stroke="#ACB7FE" stroke-linecap="round" stroke-width="24.12" d="M1285.29 865.43V1026.51"/><path stroke="#ACB7FE" stroke-linecap="round" stroke-width="24.12" d="M1152.14 955.633V1026.51"/><path stroke="#E194CE" stroke-linecap="round" stroke-width="24.12" d="M1218.72 981.404V1026.51"/><path stroke="#E8E5FC" stroke-linecap="round" stroke-width="13.783" d="M1120.61 784.41L1248.1 784.41"/><g filter="url(#filter2_dii_1871_5495)"><rect width="288.292" height="326.448" x="74" y="399.385" fill="#fff" rx="35.67"/></g><path fill="#5F5691" d="M185.287 582.503C183.31 582.503 181.553 582.221 180.015 581.656C178.508 581.091 177.221 580.196 176.154 578.972C175.087 577.748 174.287 576.132 173.753 574.123C173.22 572.083 172.953 569.604 172.953 566.685C172.953 563.39 173.22 560.612 173.753 558.352C174.287 556.093 175.056 554.288 176.06 552.938C177.096 551.558 178.367 550.569 179.873 549.973C181.38 549.376 183.122 549.078 185.099 549.078C187.484 549.078 189.462 549.518 191.031 550.396C192.631 551.275 193.808 552.483 194.562 554.021C195.346 555.528 195.739 557.285 195.739 559.294H189.383C189.383 558.195 189.226 557.27 188.912 556.516C188.598 555.732 188.112 555.135 187.453 554.727C186.794 554.319 185.962 554.115 184.958 554.115C183.483 554.115 182.353 554.508 181.568 555.292C180.815 556.046 180.297 557.16 180.015 558.635C179.764 560.11 179.622 561.899 179.591 564.002C179.905 563.688 180.376 563.311 181.003 562.872C181.662 562.432 182.478 562.056 183.451 561.742C184.424 561.397 185.476 561.224 186.606 561.224C188.834 561.224 190.701 561.679 192.208 562.589C193.746 563.468 194.891 564.692 195.644 566.261C196.398 567.831 196.774 569.651 196.774 571.722C196.774 573.951 196.272 575.881 195.268 577.513C194.295 579.113 192.945 580.353 191.219 581.232C189.524 582.079 187.547 582.503 185.287 582.503ZM185.052 577.419C186.213 577.419 187.17 577.183 187.924 576.712C188.677 576.21 189.242 575.536 189.618 574.688C189.995 573.809 190.183 572.836 190.183 571.769C190.183 570.64 189.995 569.651 189.618 568.803C189.242 567.956 188.677 567.297 187.924 566.826C187.17 566.324 186.213 566.073 185.052 566.073C183.922 566.073 182.965 566.324 182.18 566.826C181.427 567.297 180.862 567.956 180.485 568.803C180.109 569.651 179.921 570.64 179.921 571.769C179.921 572.868 180.109 573.856 180.485 574.735C180.862 575.583 181.427 576.242 182.18 576.712C182.965 577.183 183.922 577.419 185.052 577.419Z"/><path fill="#5F5691" d="M213.661 582.503C211.715 582.503 210.005 582.221 208.53 581.656C207.054 581.059 205.815 580.118 204.81 578.831C203.838 577.513 203.1 575.787 202.598 573.652C202.127 571.518 201.892 568.898 201.892 565.791C201.892 562.652 202.127 560.031 202.598 557.929C203.1 555.794 203.838 554.068 204.81 552.75C205.815 551.432 207.054 550.49 208.53 549.926C210.005 549.361 211.715 549.078 213.661 549.078C215.638 549.078 217.349 549.361 218.792 549.926C220.236 550.49 221.444 551.432 222.417 552.75C223.422 554.068 224.159 555.794 224.63 557.929C225.132 560.031 225.383 562.652 225.383 565.791C225.383 568.898 225.132 571.518 224.63 573.652C224.159 575.787 223.422 577.513 222.417 578.831C221.444 580.118 220.236 581.059 218.792 581.656C217.349 582.221 215.638 582.503 213.661 582.503ZM213.661 577.419C215.042 577.419 216.093 577.058 216.815 576.336C217.537 575.583 218.039 574.453 218.322 572.946C218.604 571.44 218.745 569.557 218.745 567.297V564.378C218.745 562.087 218.604 560.188 218.322 558.682C218.039 557.144 217.537 555.998 216.815 555.245C216.093 554.492 215.042 554.115 213.661 554.115C212.28 554.115 211.213 554.492 210.46 555.245C209.738 555.998 209.236 557.128 208.953 558.635C208.671 560.11 208.53 561.993 208.53 564.284V567.203C208.53 569.494 208.671 571.408 208.953 572.946C209.236 574.453 209.738 575.583 210.46 576.336C211.213 577.058 212.28 577.419 213.661 577.419Z"/><path fill="#5F5691" d="M237.846 581.938L260.631 549.643H265.292L242.459 581.938H237.846ZM240.247 566.026C238.583 566.026 237.155 565.743 235.963 565.179C234.801 564.614 233.907 563.719 233.279 562.495C232.683 561.271 232.385 559.623 232.385 557.552C232.385 555.481 232.683 553.833 233.279 552.609C233.907 551.354 234.801 550.459 235.963 549.926C237.155 549.361 238.583 549.078 240.247 549.078C241.942 549.078 243.37 549.361 244.531 549.926C245.692 550.459 246.571 551.354 247.167 552.609C247.795 553.833 248.109 555.481 248.109 557.552C248.109 559.623 247.795 561.287 247.167 562.542C246.571 563.766 245.692 564.661 244.531 565.226C243.37 565.759 241.942 566.026 240.247 566.026ZM240.247 562.495C241.502 562.495 242.334 562.087 242.742 561.271C243.15 560.424 243.354 559.31 243.354 557.929V557.128C243.354 556.218 243.26 555.434 243.071 554.774C242.914 554.084 242.601 553.55 242.13 553.174C241.69 552.766 241.063 552.562 240.247 552.562C239.054 552.562 238.238 552.986 237.799 553.833C237.391 554.68 237.187 555.779 237.187 557.128V557.929C237.187 559.31 237.391 560.424 237.799 561.271C238.238 562.087 239.054 562.495 240.247 562.495ZM262.797 582.503C261.133 582.503 259.705 582.221 258.513 581.656C257.351 581.091 256.457 580.196 255.829 578.972C255.233 577.748 254.935 576.1 254.935 574.029C254.935 571.958 255.233 570.31 255.829 569.086C256.457 567.831 257.351 566.936 258.513 566.403C259.705 565.838 261.133 565.555 262.797 565.555C264.492 565.555 265.92 565.838 267.081 566.403C268.273 566.936 269.168 567.831 269.764 569.086C270.361 570.31 270.659 571.958 270.659 574.029C270.659 576.1 270.361 577.764 269.764 579.019C269.168 580.243 268.273 581.138 267.081 581.703C265.92 582.236 264.492 582.503 262.797 582.503ZM262.797 579.019C264.021 579.019 264.837 578.596 265.245 577.748C265.653 576.901 265.857 575.787 265.857 574.406V573.605C265.857 572.695 265.763 571.911 265.574 571.252C265.417 570.561 265.119 570.028 264.68 569.651C264.272 569.243 263.644 569.039 262.797 569.039C261.604 569.039 260.788 569.463 260.349 570.31C259.941 571.157 259.737 572.256 259.737 573.605V574.406C259.737 575.787 259.941 576.901 260.349 577.748C260.788 578.596 261.604 579.019 262.797 579.019Z"/><circle cx="217.833" cy="563.068" r="91.695" stroke="#BB96FD" stroke-width="13.745" transform="rotate(-45 217.833 563.068)"/><path stroke="#9F71E3" stroke-linecap="round" stroke-width="26.696" d="M222.517 471.653C244.527 472.797 266.248 481.804 283.105 498.662C319.13 534.687 319.305 592.92 283.496 628.729C247.686 664.538 189.453 664.364 153.428 628.339C133.533 608.443 124.572 581.775 126.567 555.851"/><g filter="url(#filter3_f_1871_5495)" opacity=".9"><path fill="#5B79FC" fill-opacity=".28" d="M243.668 416.566H600.184V811.74H243.668V416.566Z"/></g><g filter="url(#filter4_f_1871_5495)" opacity=".9"><path fill="#5B79FC" fill-opacity=".28" d="M956.697 919.125H1270.26V1208.57H956.697V919.125Z"/></g></g><defs><filter id="filter0_dii_1871_5495" width="1326.88" height="1069.16" x="110.703" y="188.825" color-interpolation-filters="sRGB" filterUnits="userSpaceOnUse"><feFlood flood-opacity="0" result="BackgroundImageFix"/><feColorMatrix in="SourceAlpha" result="hardAlpha" values="0 0 0 0 0 0 0 0 0 0 0 0 0 0 0 0 0 0 127 0"/><feMorphology in="SourceAlpha" operator="dilate" radius="21.477" result="effect1_dropShadow_1871_5495"/><feOffset dy="64.151"/><feGaussianBlur stdDeviation="72.925"/><feComposite in2="hardAlpha" operator="out"/><feColorMatrix values="0 0 0 0 0.0619602 0 0 0 0 0.0055375 0 0 0 0 0.196963 0 0 0 0.05 0"/><feBlend in2="BackgroundImageFix" result="effect1_dropShadow_1871_5495"/><feBlend in="SourceGraphic" in2="effect1_dropShadow_1871_5495" result="shape"/><feColorMatrix in="SourceAlpha" result="hardAlpha" values="0 0 0 0 0 0 0 0 0 0 0 0 0 0 0 0 0 0 127 0"/><feOffset dx="15.012" dy="3.016"/><feGaussianBlur stdDeviation="15.012"/><feComposite in2="hardAlpha" k2="-1" k3="1" operator="arithmetic"/><feColorMatrix values="0 0 0 0 1 0 0 0 0 1 0 0 0 0 1 0 0 0 1 0"/><feBlend in2="shape" result="effect2_innerShadow_1871_5495"/><feColorMatrix in="SourceAlpha" result="hardAlpha" values="0 0 0 0 0 0 0 0 0 0 0 0 0 0 0 0 0 0 127 0"/><feOffset dx="2.142" dy="-7.278"/><feGaussianBlur stdDeviation="8.555"/><feComposite in2="hardAlpha" k2="-1" k3="1" operator="arithmetic"/><feColorMatrix values="0 0 0 0 0.118681 0 0 0 0 0.0447917 0 0 0 0 0.163542 0 0 0 0.08 0"/><feBlend in2="effect2_innerShadow_1871_5495" result="effect3_innerShadow_1871_5495"/></filter><filter id="filter1_dii_1871_5495" width="610.097" height="675.566" x="879.307" y="644.029" color-interpolation-filters="sRGB" filterUnits="userSpaceOnUse"><feFlood flood-opacity="0" result="BackgroundImageFix"/><feColorMatrix in="SourceAlpha" result="hardAlpha" values="0 0 0 0 0 0 0 0 0 0 0 0 0 0 0 0 0 0 127 0"/><feOffset dy="66.465"/><feGaussianBlur stdDeviation="74.134"/><feComposite in2="hardAlpha" operator="out"/><feColorMatrix values="0 0 0 0 0.0566155 0 0 0 0 0.0182157 0 0 0 0 0.150412 0 0 0 0.09 0"/><feBlend in2="BackgroundImageFix" result="effect1_dropShadow_1871_5495"/><feBlend in="SourceGraphic" in2="effect1_dropShadow_1871_5495" result="shape"/><feColorMatrix in="SourceAlpha" result="hardAlpha" values="0 0 0 0 0 0 0 0 0 0 0 0 0 0 0 0 0 0 127 0"/><feOffset dx="18.544" dy="3.726"/><feGaussianBlur stdDeviation="18.544"/><feComposite in2="hardAlpha" k2="-1" k3="1" operator="arithmetic"/><feColorMatrix values="0 0 0 0 1 0 0 0 0 1 0 0 0 0 1 0 0 0 1 0"/><feBlend in2="shape" result="effect2_innerShadow_1871_5495"/><feColorMatrix in="SourceAlpha" result="hardAlpha" values="0 0 0 0 0 0 0 0 0 0 0 0 0 0 0 0 0 0 127 0"/><feOffset dx="-.756" dy="-2.712"/><feGaussianBlur stdDeviation="2.751"/><feComposite in2="hardAlpha" k2="-1" k3="1" operator="arithmetic"/><feColorMatrix values="0 0 0 0 0.345319 0 0 0 0 0.318824 0 0 0 0 0.543922 0 0 0 0.2 0"/><feBlend in2="effect2_innerShadow_1871_5495" result="effect3_innerShadow_1871_5495"/></filter><filter id="filter2_dii_1871_5495" width="527.615" height="565.772" x="-45.662" y="333.364" color-interpolation-filters="sRGB" filterUnits="userSpaceOnUse"><feFlood flood-opacity="0" result="BackgroundImageFix"/><feColorMatrix in="SourceAlpha" result="hardAlpha" values="0 0 0 0 0 0 0 0 0 0 0 0 0 0 0 0 0 0 127 0"/><feOffset dy="53.642"/><feGaussianBlur stdDeviation="59.831"/><feComposite in2="hardAlpha" operator="out"/><feColorMatrix values="0 0 0 0 0.0566155 0 0 0 0 0.0182157 0 0 0 0 0.150412 0 0 0 0.09 0"/><feBlend in2="BackgroundImageFix" result="effect1_dropShadow_1871_5495"/><feBlend in="SourceGraphic" in2="effect1_dropShadow_1871_5495" result="shape"/><feColorMatrix in="SourceAlpha" result="hardAlpha" values="0 0 0 0 0 0 0 0 0 0 0 0 0 0 0 0 0 0 127 0"/><feOffset dx="14.966" dy="3.007"/><feGaussianBlur stdDeviation="14.966"/><feComposite in2="hardAlpha" k2="-1" k3="1" operator="arithmetic"/><feColorMatrix values="0 0 0 0 1 0 0 0 0 1 0 0 0 0 1 0 0 0 1 0"/><feBlend in2="shape" result="effect2_innerShadow_1871_5495"/><feColorMatrix in="SourceAlpha" result="hardAlpha" values="0 0 0 0 0 0 0 0 0 0 0 0 0 0 0 0 0 0 127 0"/><feOffset dx="-.61" dy="-2.189"/><feGaussianBlur stdDeviation="2.22"/><feComposite in2="hardAlpha" k2="-1" k3="1" operator="arithmetic"/><feColorMatrix values="0 0 0 0 0.345319 0 0 0 0 0.318824 0 0 0 0 0.543922 0 0 0 0.2 0"/><feBlend in2="effect2_innerShadow_1871_5495" result="effect3_innerShadow_1871_5495"/></filter><filter id="filter3_f_1871_5495" width="1971.32" height="2009.97" x="-563.732" y="-390.834" color-interpolation-filters="sRGB" filterUnits="userSpaceOnUse"><feFlood flood-opacity="0" result="BackgroundImageFix"/><feBlend in="SourceGraphic" in2="BackgroundImageFix" result="shape"/><feGaussianBlur result="effect1_foregroundBlur_1871_5495" stdDeviation="403.7"/></filter><filter id="filter4_f_1871_5495" width="1608.95" height="1584.83" x="309.002" y="271.43" color-interpolation-filters="sRGB" filterUnits="userSpaceOnUse"><feFlood flood-opacity="0" result="BackgroundImageFix"/><feBlend in="SourceGraphic" in2="BackgroundImageFix" result="shape"/><feGaussianBlur result="effect1_foregroundBlur_1871_5495" stdDeviation="323.847"/></filter><linearGradient id="paint0_linear_1871_5495" x1="443.401" x2="1256.3" y1="930.936" y2="673.636" gradientUnits="userSpaceOnUse"><stop offset=".236" stop-color="#F9F6FF" stop-opacity=".7"/><stop offset="1" stop-color="#F9F6FF" stop-opacity=".8"/></linearGradient><clipPath id="clip0_1871_5495"><rect width="1500" height="1500" fill="#fff"/></clipPath></defs></svg>