<svg xmlns="http://www.w3.org/2000/svg" viewBox="0 0 24 24"><path  fill="#ff6e40" d="M7.5,19.75A2.25,2.25,0,0,1,5.25,17.5v-.25H3a.76.76,0,0,1-.75-.75v-9A.76.76,0,0,1,3,6.75H5.25V6.5a2.25,2.25,0,0,1,4.5,0v.25H12a.76.76,0,0,1,.75.75v3a.75.75,0,0,1-1.5,0V8.25H9a.76.76,0,0,1-.75-.75v-1a.75.75,0,0,0-1.5,0v1A.76.76,0,0,1,6,8.25H3.75v7.5H6a.76.76,0,0,1,.75.75v1a.75.75,0,0,0,1.5,0v-1A.76.76,0,0,1,9,15.75h2.25V13.5a.75.75,0,0,1,1.5,0v3a.76.76,0,0,1-.75.75H9.75v.25A2.25,2.25,0,0,1,7.5,19.75Z"/><path fill="#000" d="M21,6.75H18a.76.76,0,0,0-.75.75v1a.75.75,0,0,1-1.5,0v-1A.76.76,0,0,0,15,6.75H12a.76.76,0,0,0-.75.75V9.75H11a2.25,2.25,0,0,0,0,4.5h.25V16.5a.76.76,0,0,0,.75.75h2.25v.25a2.25,2.25,0,0,0,4.5,0v-.25H21a.76.76,0,0,0,.75-.75v-9A.76.76,0,0,0,21,6.75Zm-.75,9H18a.76.76,0,0,0-.75.75v1a.75.75,0,0,1-1.5,0v-1a.76.76,0,0,0-.75-.75H12.75V13.5a.76.76,0,0,0-.75-.75H11a.75.75,0,0,1,0-1.5h1a.76.76,0,0,0,.75-.75V8.25h1.5V8.5a2.25,2.25,0,0,0,4.5,0V8.25h1.5Z"/></svg>
