<svg xmlns="http://www.w3.org/2000/svg" viewBox="0 0 24 24"><path  fill="#ff6e40" d="M17.5 10.6a4.1 4.1 0 114.1-4.1A4.11 4.11 0 0117.5 10.6zm0-7a2.9 2.9 0 102.9 2.9A2.9 2.9 0 0017.5 3.6zM6.5 21.6a4.1 4.1 0 114.1-4.1A4.11 4.11 0 016.5 21.6zm0-7a2.9 2.9 0 102.9 2.9A2.9 2.9 0 006.5 14.6z"/><path  fill="#ff6e40" d="M8.69,20.83a.6.6,0,0,1-.6-.6v-.1a1.59,1.59,0,0,0-3.18,0v.1a.6.6,0,0,1-1.2,0v-.1a2.79,2.79,0,0,1,5.58,0v.1A.6.6,0,0,1,8.69,20.83Z"/><path  fill="#ff6e40" d="M6.5,18.54a1.7,1.7,0,1,1,1.69-1.7A1.7,1.7,0,0,1,6.5,18.54Zm0-2.19a.5.5,0,1,0,.49.49A.49.49,0,0,0,6.5,16.35Z"/><path fill="#000" d="M12.5 7.25h-1a.75.75 0 010-1.5h1a.75.75 0 010 1.5zM19.34 18.25H18.8a.75.75 0 110-1.5h.54a.86.86 0 00.7-.39.75.75 0 011.22.86A2.35 2.35 0 0119.34 18.25zm-2.64 0H14.61a.75.75 0 010-1.5H16.7a.75.75 0 110 1.5zm4.1-2.7a.73.73 0 01-.67-.42 1 1 0 00-.61-.52l-.59-.15a.73.73 0 01-.55-.9.74.74 0 01.9-.55l.6.14a2.43 2.43 0 011.59 1.32.75.75 0 01-.34 1A.67.67 0 0120.8 15.55zM17.07 14l-.18 0-2-.5A.75.75 0 0115.22 12l2 .5A.75.75 0 0117.07 14zM13 13l-.18 0-2-.49A.75.75 0 0111.15 11l2 .5A.75.75 0 0113 13zM8.94 12a.55.55 0 01-.18 0l-2-.49A.75.75 0 117.09 10l2 .49A.75.75 0 018.94 12zM4.88 11L4.7 11l-.58-.14a2.43 2.43 0 01-1.6-1.34.74.74 0 01.35-1 .75.75 0 011 .35.94.94 0 00.61.53l.57.14A.75.75 0 014.88 11zM3.36 7.94a.72.72 0 01-.44-.14.76.76 0 01-.17-1 2.38 2.38 0 011.91-1h.56a.75.75 0 010 1.5H4.66A.88.88 0 004 7.63.74.74 0 013.36 7.94zm6.05-.69H7.32a.75.75 0 010-1.5H9.41a.75.75 0 010 1.5zM12.5 18.25h-1a.75.75 0 010-1.5h1a.75.75 0 010 1.5z"/><path  fill="#ff6e40" d="M17.06,8a.58.58,0,0,1-.42-.17l-.88-.88a.6.6,0,1,1,.85-.84l.45.45L18.39,5.2a.6.6,0,0,1,.85.85L17.49,7.8A.59.59,0,0,1,17.06,8Z"/></svg>
