<svg xmlns="http://www.w3.org/2000/svg" viewBox="0 0 24 24"><path fill="#000" d="M12,15.75A3.75,3.75,0,1,1,15.75,12,3.75,3.75,0,0,1,12,15.75Zm0-6A2.25,2.25,0,1,0,14.25,12,2.25,2.25,0,0,0,12,9.75Z"/><path  fill="#ff6e40" d="M13.22,21.75H10.78a1.75,1.75,0,0,1-1.7-1.33l0-.12a2.25,2.25,0,0,0-2.88-1.59,1.72,1.72,0,0,1-2-.77L2.92,15.78a1.71,1.71,0,0,1,.28-2.06l.12-.12a2.25,2.25,0,0,0,0-3.2l-.12-.12a1.71,1.71,0,0,1-.28-2.06L4.17,6.06a1.71,1.71,0,0,1,2-.77A2.25,2.25,0,0,0,9.05,3.7l0-.12a1.75,1.75,0,0,1,1.7-1.33h2.44a1.75,1.75,0,0,1,1.7,1.33h0l0,.12a2.25,2.25,0,0,0,2.88,1.59,1.72,1.72,0,0,1,2,.77l1.25,2.16a1.71,1.71,0,0,1-.28,2.06l-.12.12a2.25,2.25,0,0,0,0,3.2l.12.12a1.71,1.71,0,0,1,.28,2.06l-1.25,2.16a1.71,1.71,0,0,1-2,.77A2.25,2.25,0,0,0,15,20.3l0,.12A1.75,1.75,0,0,1,13.22,21.75ZM6.87,17.1a3.75,3.75,0,0,1,3.64,2.84l0,.12a.26.26,0,0,0,.24.19h2.44a.26.26,0,0,0,.24-.19l0-.12a3.76,3.76,0,0,1,4.8-2.66.2.2,0,0,0,.24-.09L19.78,15a.21.21,0,0,0,0-.24l-.13-.12A3.78,3.78,0,0,1,18.51,12a3.74,3.74,0,0,1,1.11-2.66l.13-.13a.21.21,0,0,0,0-.24L18.53,6.81a.21.21,0,0,0-.24-.09,3.76,3.76,0,0,1-4.8-2.66l0-.12a.26.26,0,0,0-.24-.19H10.78a.26.26,0,0,0-.24.19l0,.12a3.76,3.76,0,0,1-4.8,2.66.2.2,0,0,0-.24.09L4.22,9a.21.21,0,0,0,0,.24l.13.12A3.78,3.78,0,0,1,5.49,12a3.74,3.74,0,0,1-1.11,2.66l-.13.13a.21.21,0,0,0,0,.24l1.25,2.16a.21.21,0,0,0,.24.09A3.8,3.8,0,0,1,6.87,17.1Z"/></svg>
