<svg xmlns="http://www.w3.org/2000/svg" xmlns:xlink="http://www.w3.org/1999/xlink" version="1.1" id="Layer_1" x="0px" y="0px" width="841.9px" height="297.6px" viewBox="0 0 841.9 297.6" style="enable-background:new 0 0 841.9 297.6;" xml:space="preserve">
<g>
	<defs>
		<rect id="SVGID_1_" width="841.9" height="297.6"/>
	</defs>
	<clipPath id="SVGID_00000008844228763345415380000013794750202294032312_">
		<use xlink:href="#SVGID_1_" style="overflow:visible;"/>
	</clipPath>
	<g style="clip-path:url(#SVGID_00000008844228763345415380000013794750202294032312_);">
		<defs>
			<rect id="SVGID_00000060716761500339741210000000237498975405345465_" x="-87.7" y="-49.8" width="923.7" height="390.5"/>
		</defs>
		<clipPath id="SVGID_00000147199168588791706280000008070264640056514194_">
			<use xlink:href="#SVGID_00000060716761500339741210000000237498975405345465_" style="overflow:visible;"/>
		</clipPath>
		<g style="clip-path:url(#SVGID_00000147199168588791706280000008070264640056514194_);">
			<path style="fill:orange;" d="M180,71.2c43.8,31.6,91,50.4,140.2,56c10.2,1.2,20.5,1.7,30.8,1.7c39.3,0,78.5-8.5,117-25.5     C518.2,81.4,565.6,45.6,608.8-3c10.8-12.1,20.5-23.4,28.7-33.5c3.8-4.7,7.3-9.1,10.4-13.2h-3.2c-2.8,3.7-5.9,7.6-9.2,11.6     c-8.2,10.1-17.8,21.3-28.6,33.5c-43,48.2-90,83.8-139.9,105.8c-48.1,21.2-97.4,29.1-146.4,23.6c-48.8-5.5-95.6-24.2-139-55.5     c-41.1-29.6-77.9-69.6-109.6-119h-3C101,0.5,138.3,41.2,180,71.2z"/>
			<path style="fill:#FFFFFF;" d="M28.2,244.4c19-24.5,32.6-50.5,39.4-75.2c6.5-23.5,6.8-45.3,0.8-63.2c-5.4-16.3-17-30.5-34.6-42.2     C19.5,54.3,1,46.2-21.3,39.8c-16.7-4.8-35-8.6-56.2-11.5c-3.5-0.5-7-0.9-10.2-1.3v2.6c3.2,0.4,6.5,0.8,9.9,1.3     c21,3,39.3,6.7,55.8,11.5C0,48.6,18.3,56.6,32.4,66c17,11.4,28.3,25.1,33.6,40.8c5.8,17.4,5.5,38.7-0.8,61.7     c-6.7,24.4-20.2,50.1-38.9,74.3c-20.9,27.1-47.9,52-80.2,74.1c-10.7,7.3-21.9,14.3-33.6,20.9v2.9c12.2-6.8,23.9-14,35.1-21.7     C-20.1,296.8,7.1,271.7,28.2,244.4z"/>
			<path style="fill:orange;" d="M512.4,73c13.4,21.4,36.4,32.4,67.2,32.4c5.9,0,11.7-0.4,17.5-1.1c35.5-4.3,78.4-21.2,120.7-47.6     c42.3-26.4,81.6-60.9,110.7-97c2.6-3.2,5.1-6.4,7.4-9.5h-3.2c-2,2.6-4,5.2-6.2,7.9c-29,35.9-68.1,70.2-110.1,96.4     c-42,26.2-84.4,43-119.6,47.2c-38.6,4.6-67-5.8-82.3-30.1c-16.3-26-17.7-66.8-4.4-121.4h-2.6C494.2,5.3,495.8,46.5,512.4,73z"/>
			<path style="fill:white;" d="M70.2,142.4c17.4-24,28.3-46.3,32.2-66.3c3.6-18.4,1-34.1-7.5-45.4C87,20.2,73.9,11.1,56.1,3.5     c-16.6-7-37.2-12.6-59.7-16c-23-3.4-46.3-4.6-69.6-3.7c-4.9,0.2-9.7,0.5-14.5,0.9v2.6c4.8-0.4,9.6-0.7,14.6-0.9     C-50-14.6-26.9-13.3-4-10C18.3-6.6,38.7-1.1,55.1,5.8c17.4,7.4,30.1,16.3,37.7,26.4c8,10.7,10.5,25.7,7,43.3     c-3.8,19.6-14.5,41.6-31.7,65.3c-19.3,26.4-46,54-79.6,81.9c-22.5,18.7-48,37.4-76.2,56v3.1c28.8-19,54.8-38.1,77.8-57.1     C23.9,196.7,50.8,169,70.2,142.4z"/>
			<path style="fill:orange;" d="M256.4,30.4c-12.7-7.2-27.5-10.7-41.6-9.7c-19.8,1.3-38.5,9.4-53,22.9     c-13.5,12.5-21.8,28.2-22.8,42.9c-1.1,17.5,17.3,30.7,48,34.4c5.6,0.7,11.2,1,16.9,1c24,0,47.6-6.1,63-16.8     c9.3-6.4,15-14.1,17-22.9c1.6-7.1,0.9-15-2.2-23.9C277.9,47.5,268.9,37.6,256.4,30.4z M281.3,81.7c-1.9,8.1-7.3,15.4-16,21.4     c-18.6,12.9-49.2,18.9-78.1,15.3c-22.9-2.8-47-12.6-45.7-31.7c0.9-14.1,8.9-29.1,22-41.2c14.1-13.1,32.3-20.9,51.4-22.2     c13.7-0.9,28,2.4,40.2,9.4c12,6.8,20.6,16.2,24.1,26.5C282.2,67.7,282.8,75,281.3,81.7z"/>
		</g>
	</g>
</g>
</svg>