<svg xmlns="http://www.w3.org/2000/svg" xmlns:xlink="http://www.w3.org/1999/xlink" version="1.1" id="Layer_1" x="0px" y="0px" width="257.1px" height="297.6px" viewBox="0 0 257.1 297.6" style="enable-background:new 0 0 257.1 297.6;" xml:space="preserve">
<g>
	<defs>
		<rect id="SVGID_1_" width="257.1" height="297.6"/>
	</defs>
	<clipPath id="SVGID_00000131349845642152174660000007962119287975125656_">
		<use xlink:href="#SVGID_1_" style="overflow:visible;"/>
	</clipPath>
	<g style="clip-path:url(#SVGID_00000131349845642152174660000007962119287975125656_);">
		<g>
			<defs>
				<rect id="SVGID_00000092419497555228240800000005454256295030029220_" x="15" y="52.6" width="591.3" height="394.2"/>
			</defs>
			<clipPath id="SVGID_00000041282801670059440460000017457990504090015133_">
				<use xlink:href="#SVGID_00000092419497555228240800000005454256295030029220_" style="overflow:visible;"/>
			</clipPath>
			<g style="clip-path:url(#SVGID_00000041282801670059440460000017457990504090015133_);">
				<path style="fill:#FFFFFF;" d="M412.7,172.7c-54.5-50.8-110.1-88.9-156.5-107.3c-52-20.6-91.5-16.5-114.3,12      c-10.2,12.8-17.6,35.6-20.9,64.4c-3.6,31.4-2.1,67.3,4.4,103.9c13.1,73.5,44.2,142.6,90.6,201h3.4      c-46.8-58.5-78.3-127.7-91.4-201.5c-6.4-36.3-7.9-72-4.4-103.1c3.2-28.3,10.5-50.7,20.4-63c21.9-27.4,60.4-31.3,111.2-11.2      c46.1,18.3,101.4,56.2,155.7,106.7c53.9,50.2,104,110.3,141,169c22.7,36,40,70.8,51.6,103.1h2.8c-11.6-32.7-29.1-68-52.1-104.5      C517.1,283.3,466.9,223.1,412.7,172.7z"/>
				<path style="fill:white;" d="M90.8,223.2c-14.7,9.8-18.6,38.8-9.1,67.5c10.4,31.2,31.7,49.4,57.5,49.4c1.1,0,2.2,0,3.3-0.1      c7-0.4,13.4-2.4,19-5.8c6.1-3.7,11.1-9.2,14.9-16.3c14.3-26.4-1.2-56.9-18.9-75C139.3,224.2,110.6,210.1,90.8,223.2z       M174.1,316.7c-3.6,6.6-8.3,11.8-13.9,15.3c-5.2,3.2-11.1,5-17.7,5.4c-26,1.5-47.7-16.2-58.2-47.5c-9-27.2-5.5-55.5,8-64.5      c4.9-3.3,10.5-4.7,16.3-4.7c16.1,0,34.2,10.9,47,24.1C172.7,262.3,187.7,291.5,174.1,316.7z"/>
				<path style="fill:orange;" d="M390.2,279.2c-35.3-45.6-97.3-82-165.9-97.2c-69.1-15.4-132.7-6.4-170.1,24.1      C22.6,231.8-6,284.7,36.4,390.7c7.5,18.8,20,38,36.2,56h3.6c-16.8-18.3-29.7-37.9-37.4-57C-2.9,285.2,25,233.3,55.8,208.2      c24.9-20.3,61.7-30.9,104.1-30.9c20.2,0,41.7,2.4,63.7,7.3c68,15.1,129.5,51.1,164.4,96.3c27.6,35.7,51.2,92.8,12.3,165.9h3      C442,373,418.1,315.3,390.2,279.2z"/>
			</g>
		</g>
	</g>
</g>
</svg>