<svg xmlns="http://www.w3.org/2000/svg" viewBox="0 0 24 24"><path  fill="#ff6e40" d="M18,11.25H12.75V8a.75.75,0,0,0-1.5,0v3.25H6A1.76,1.76,0,0,0,4.25,13v3a.75.75,0,0,0,1.5,0V13A.25.25,0,0,1,6,12.75h5.25V16a.75.75,0,0,0,1.5,0V12.75H18a.25.25,0,0,1,.25.25v3a.75.75,0,0,0,1.5,0V13A1.76,1.76,0,0,0,18,11.25Z"/><path fill="#000" d="M19 20.75A2.75 2.75 0 1121.75 18 2.75 2.75 0 0119 20.75zm0-4A1.25 1.25 0 1020.25 18 1.25 1.25 0 0019 16.75zM5 20.75A2.75 2.75 0 117.75 18 2.75 2.75 0 015 20.75zm0-4A1.25 1.25 0 106.25 18 1.25 1.25 0 005 16.75zM12 20.75A2.75 2.75 0 1114.75 18 2.75 2.75 0 0112 20.75zm0-4A1.25 1.25 0 1013.25 18 1.25 1.25 0 0012 16.75zM12 8.75A2.75 2.75 0 1114.75 6 2.75 2.75 0 0112 8.75zm0-4A1.25 1.25 0 1013.25 6 1.25 1.25 0 0012 4.75z"/></svg>
