<svg xmlns="http://www.w3.org/2000/svg" viewBox="0 0 24 24"><path d="M13 21.75H12a.75.75 0 010-1.5h1A2.25 2.25 0 0015.25 18V17a.75.75 0 011.5 0v1A3.75 3.75 0 0113 21.75zM21 14.75a.76.76 0 01-.75-.75V12a8.25 8.25 0 00-16.5 0v2a.75.75 0 01-1.5 0V12a9.75 9.75 0 0119.5 0v2A.76.76 0 0121 14.75z"/><path fill="#f25220" d="M18 19.75H17A1.76 1.76 0 0115.25 18V12A1.76 1.76 0 0117 10.25h1A3.75 3.75 0 0121.75 14v2A3.75 3.75 0 0118 19.75zm-1-8a.25.25 0 00-.25.25v6a.25.25 0 00.25.25h1A2.25 2.25 0 0020.25 16V14A2.25 2.25 0 0018 11.75zM7 19.75H6A3.75 3.75 0 012.25 16V14A3.75 3.75 0 016 10.25H7A1.76 1.76 0 018.75 12v6A1.76 1.76 0 017 19.75zm-1-8A2.25 2.25 0 003.75 14v2A2.25 2.25 0 006 18.25H7A.25.25 0 007.25 18V12A.25.25 0 007 11.75z"/></svg>