<svg xmlns="http://www.w3.org/2000/svg" viewBox="0 0 24 24"><path  fill="#ff6e40" d="M8,10.75H4A1.76,1.76,0,0,1,2.25,9V5A1.76,1.76,0,0,1,4,3.25H6a.75.75,0,0,1,0,1.5H4A.25.25,0,0,0,3.75,5V9A.25.25,0,0,0,4,9.25H8A.25.25,0,0,0,8.25,9V7a.75.75,0,0,1,1.5,0V9A1.76,1.76,0,0,1,8,10.75Z"/><path fill="#000" d="M6,8.25A.74.74,0,0,1,5.47,8l-1-1A.75.75,0,0,1,5.53,6L6,6.44,8.47,4A.75.75,0,1,1,9.53,5l-3,3A.74.74,0,0,1,6,8.25Z"/><path  fill="#ff6e40" d="M8 20.75H4A1.76 1.76 0 012.25 19V15A1.76 1.76 0 014 13.25H8A1.76 1.76 0 019.75 15v4A1.76 1.76 0 018 20.75zm-4-6a.25.25 0 00-.25.25v4a.25.25 0 00.25.25H8A.25.25 0 008.25 19V15A.25.25 0 008 14.75zM17 19.25H13a.75.75 0 010-1.5h4a.75.75 0 010 1.5zM21 16.25H13a.75.75 0 010-1.5h8a.75.75 0 010 1.5zM17 9.25H13a.75.75 0 010-1.5h4a.75.75 0 010 1.5zM21 6.25H13a.75.75 0 010-1.5h8a.75.75 0 010 1.5z"/></svg>
