<svg xmlns="http://www.w3.org/2000/svg" viewBox="0 0 24 24"><path  fill="#ff6e40" d="M18,21.75H6A1.76,1.76,0,0,1,4.25,20V4A1.76,1.76,0,0,1,6,2.25H18A1.76,1.76,0,0,1,19.75,4V20A1.76,1.76,0,0,1,18,21.75ZM6,3.75A.25.25,0,0,0,5.75,4V20a.25.25,0,0,0,.25.25H18a.25.25,0,0,0,.25-.25V4A.25.25,0,0,0,18,3.75Z"/><path fill="#000" d="M9,18.75a.74.74,0,0,1-.53-.22l-1-1a.75.75,0,0,1,1.06-1.06l.47.47,1.47-1.47a.75.75,0,1,1,1.06,1.06l-2,2A.74.74,0,0,1,9,18.75Z"/><path  fill="#fff" d="M16,17.75H14a.75.75,0,0,1,0-1.5h2a.75.75,0,0,1,0,1.5Z"/><path fill="#000" d="M9,13.75a.74.74,0,0,1-.53-.22l-1-1a.75.75,0,0,1,1.06-1.06l.47.47,1.47-1.47a.75.75,0,0,1,1.06,1.06l-2,2A.74.74,0,0,1,9,13.75Z"/><path  fill="#ff6e40" d="M16,12.75H14a.75.75,0,0,1,0-1.5h2a.75.75,0,0,1,0,1.5Z"/><path fill="#000" d="M9,8.75a.74.74,0,0,1-.53-.22l-1-1A.75.75,0,0,1,8.53,6.47L9,6.94l1.47-1.47a.75.75,0,0,1,1.06,1.06l-2,2A.74.74,0,0,1,9,8.75Z"/><path  fill="#ff6e40" d="M16,7.75H14a.75.75,0,0,1,0-1.5h2a.75.75,0,0,1,0,1.5Z"/></svg>
