<svg xmlns="http://www.w3.org/2000/svg" xmlns:xlink="http://www.w3.org/1999/xlink" viewBox="0 0 512 512" width="512" height="512" preserveAspectRatio="xMidYMid meet" style="width: 100%; height: 100%; transform: translate3d(0px, 0px, 0px); content-visibility: visible;"><defs><clipPath id="__lottie_element_72"><rect width="512" height="512" x="0" y="0"></rect></clipPath><linearGradient id="__lottie_element_76" spreadMethod="pad" gradientUnits="userSpaceOnUse" x1="-145.0500030517578" y1="-135.1750030517578" x2="89.20700073242188" y2="45.691001892089844"><stop offset="0%" stop-color="rgb(181,68,33)"></stop><stop offset="50%" stop-color="rgb(228,74,27)"></stop><stop offset="100%" stop-color="rgb(248,95,48)"></stop></linearGradient><linearGradient id="__lottie_element_80" spreadMethod="pad" gradientUnits="userSpaceOnUse" x1="115.63099670410156" y1="160.35899353027344" x2="93.63800048828125" y2="-126.34100341796875"><stop offset="0%" stop-color="rgb(226,75,29)"></stop><stop offset="26%" stop-color="rgb(238,108,68)"></stop><stop offset="51%" stop-color="rgb(249,145,113)"></stop><stop offset="76%" stop-color="rgb(248,185,165)"></stop><stop offset="100%" stop-color="rgb(247,224,218)"></stop></linearGradient><g id="__lottie_element_81"><g transform="matrix(1,0,0,1,0,0)" opacity="1" style="display: block;"><g opacity="1" transform="matrix(1,0,0,1,256,256)"><path fill="url(#__lottie_element_84)" fill-opacity="1" d=" M60.88199996948242,230 C60.88199996948242,230 -60.882999420166016,230 -60.882999420166016,230 C-154.28399658203125,230 -230,154.2830047607422 -230,60.88199996948242 C-230,60.88199996948242 -230,-60.88199996948242 -230,-60.88199996948242 C-230,-154.2830047607422 -154.28399658203125,-230 -60.882999420166016,-230 C-60.882999420166016,-230 60.88199996948242,-230 60.88199996948242,-230 C154.2830047607422,-230 230,-154.2830047607422 230,-60.88199996948242 C230,-60.88199996948242 230,60.88199996948242 230,60.88199996948242 C230,154.2830047607422 154.2830047607422,230 60.88199996948242,230z"></path></g></g></g><linearGradient id="__lottie_element_84" spreadMethod="pad" gradientUnits="userSpaceOnUse" x1="-145.0500030517578" y1="-135.1750030517578" x2="89.20700073242188" y2="45.691001892089844"><stop offset="0%" stop-color="rgb(181,68,33)"></stop><stop offset="50%" stop-color="rgb(228,74,27)"></stop><stop offset="100%" stop-color="rgb(248,95,48)"></stop></linearGradient><mask id="__lottie_element_81_1" mask-type="alpha"><use xlink:href="#__lottie_element_81"></use></mask></defs><g clip-path="url(#__lottie_element_72)"><g transform="matrix(1,0,0,1,0,0)" opacity="1" style="display: block;"><g opacity="1" transform="matrix(1,0,0,1,256,256)"><path fill="url(#__lottie_element_76)" fill-opacity="1" d=" M60.88199996948242,230 C60.88199996948242,230 -60.882999420166016,230 -60.882999420166016,230 C-154.28399658203125,230 -230,154.2830047607422 -230,60.88199996948242 C-230,60.88199996948242 -230,-60.88199996948242 -230,-60.88199996948242 C-230,-154.2830047607422 -154.28399658203125,-230 -60.882999420166016,-230 C-60.882999420166016,-230 60.88199996948242,-230 60.88199996948242,-230 C154.2830047607422,-230 230,-154.2830047607422 230,-60.88199996948242 C230,-60.88199996948242 230,60.88199996948242 230,60.88199996948242 C230,154.2830047607422 154.2830047607422,230 60.88199996948242,230z"></path></g></g><g mask="url(#__lottie_element_81_1)" style="display: block;"><g transform="matrix(1,0,0,1,0,0)" opacity="1"><g opacity="0.25" transform="matrix(1.386328101158142,0.13053394854068756,-0.1442776769399643,1.5322926044464111,225.9820098876953,410.98095703125)"><path fill="rgb(111,30,5)" fill-opacity="1" d=" M230.01600646972656,-9.228060722351074 C230.01199340820312,-16.267061233520508 229.6269989013672,-23.263059616088867 228.73699951171875,-30.05906105041504 C228.73699951171875,-30.05906105041504 137.7849884033203,-116.87698364257812 137.7849884033203,-116.87698364257812 C130.69198608398438,-124.88097381591797 125.01898193359375,-132.68296813964844 117.50298309326172,-120.3279800415039 C117.50298309326172,-120.3279800415039 75.30500030517578,-64.36302185058594 75.30500030517578,-64.36302185058594 C70.05399322509766,-58.214027404785156 62.60699462890625,-59.27802658081055 52.53399658203125,-66.9670181274414 C52.53399658203125,-66.9670181274414 16.86197280883789,-93.67498016357422 -17.171010971069336,-162.9349365234375 C-23.00501251220703,-174.8079376220703 -38.10200881958008,-171.68893432617188 -42.42900848388672,-159.8689422607422 C-42.42900848388672,-159.8689422607422 -75.69099426269531,-77.00798797607422 -90.65199279785156,-75.12599182128906 C-99.41899108886719,-74.02299499511719 -96.8689956665039,-105.15597534179688 -107.91099548339844,-101.54297637939453 C-118.95298767089844,-97.92997741699219 -128.6510009765625,-48.70998764038086 -138.51800537109375,-48.31998825073242 C-148.38499450683594,-47.92998504638672 -151.38900756835938,-80.99797058105469 -157.22900390625,-87.75997161865234 C-162.90199279785156,-94.32797241210938 -172.62100219726562,-95.54997253417969 -179.74400329589844,-90.58897399902344 C-179.74400329589844,-90.58897399902344 -229.51199340820312,4.755000114440918 -229.51199340820312,4.755000114440918 C-220.5399932861328,89.70999908447266 -148.70199584960938,155.91799926757812 -61.36899948120117,155.91799926757812 C-61.36899948120117,155.91799926757812 64.16999816894531,155.91799926757812 64.16999816894531,155.91799926757812 C155.67599487304688,155.91799926757812 230.0540008544922,96.05799102783203 230.0540008544922,6.658990383148193 C230.0540008544922,6.658990383148193 230.02200317382812,1.0519394874572754 230.02200317382812,1.0519394874572754 C230.02200317382812,1.0519394874572754 230.0540008544922,-114.92401123046875 230.0540008544922,-114.92401123046875 C230.0540008544922,-115.02600860595703 230.0189971923828,-9.127060890197754 230.01600646972656,-9.228060722351074z"></path></g><g opacity="1" transform="matrix(1.409999966621399,0,0,1.409999966621399,256.4880065917969,404.08197021484375)"><path fill="url(#__lottie_element_80)" fill-opacity="1" d=" M230.01600646972656,-9.228060722351074 C230.01199340820312,-16.267061233520508 229.6269989013672,-23.263059616088867 228.73699951171875,-30.05906105041504 C228.73699951171875,-30.05906105041504 137.7849884033203,-116.87698364257812 137.7849884033203,-116.87698364257812 C130.69198608398438,-124.88097381591797 125.01898193359375,-132.68296813964844 117.50298309326172,-120.3279800415039 C117.50298309326172,-120.3279800415039 75.30500030517578,-64.36302185058594 75.30500030517578,-64.36302185058594 C70.05399322509766,-58.214027404785156 62.60699462890625,-59.27802658081055 52.53399658203125,-66.9670181274414 C52.53399658203125,-66.9670181274414 16.86197280883789,-93.67498016357422 -17.171010971069336,-162.9349365234375 C-23.00501251220703,-174.8079376220703 -38.10200881958008,-171.68893432617188 -42.42900848388672,-159.8689422607422 C-42.42900848388672,-159.8689422607422 -75.69099426269531,-77.00798797607422 -90.65199279785156,-75.12599182128906 C-99.41899108886719,-74.02299499511719 -96.8689956665039,-105.15597534179688 -107.91099548339844,-101.54297637939453 C-118.95298767089844,-97.92997741699219 -128.6510009765625,-48.70998764038086 -138.51800537109375,-48.31998825073242 C-148.38499450683594,-47.92998504638672 -151.38900756835938,-80.99797058105469 -157.22900390625,-87.75997161865234 C-162.90199279785156,-94.32797241210938 -172.62100219726562,-95.54997253417969 -179.74400329589844,-90.58897399902344 C-179.74400329589844,-90.58897399902344 -229.51199340820312,4.755000114440918 -229.51199340820312,4.755000114440918 C-220.5399932861328,89.70999908447266 -148.70199584960938,155.91799926757812 -61.36899948120117,155.91799926757812 C-61.36899948120117,155.91799926757812 64.16999816894531,155.91799926757812 64.16999816894531,155.91799926757812 C155.67599487304688,155.91799926757812 230.0540008544922,96.05799102783203 230.0540008544922,6.658990383148193 C230.0540008544922,6.658990383148193 230.02200317382812,1.0519394874572754 230.02200317382812,1.0519394874572754 C230.02200317382812,1.0519394874572754 230.0540008544922,-114.92401123046875 230.0540008544922,-114.92401123046875 C230.0540008544922,-115.02600860595703 230.0189971923828,-9.127060890197754 230.01600646972656,-9.228060722351074z"></path></g><g opacity="0" transform="matrix(1,0,0,1,298.3800048828125,245.60400390625)"><path stroke-linecap="butt" stroke-linejoin="miter" fill-opacity="0" stroke-miterlimit="10" stroke="rgb(111,30,5)" stroke-opacity="1" stroke-width="14.807" d=" M21.000999450683594,28 C21.000999450683594,16.822999954223633 11.9399995803833,7.763000011444092 0.7639999985694885,7.763000011444092 C-10.413000106811523,7.763000011444092 -19.474000930786133,16.822999954223633 -19.474000930786133,28 C-19.474000930786133,39.176998138427734 -10.413000106811523,48.23699951171875 0.7639999985694885,48.23699951171875 C11.9399995803833,48.23699951171875 21.000999450683594,39.176998138427734 21.000999450683594,28z"></path></g><g opacity="0" transform="matrix(1,0,0,1,312.03900146484375,239.51300048828125)"><path fill="rgb(209,71,29)" fill-opacity="1" d=" M21.000999450683594,28 C21.000999450683594,16.822999954223633 11.9399995803833,7.763000011444092 0.7639999985694885,7.763000011444092 C-10.413000106811523,7.763000011444092 -19.474000930786133,16.822999954223633 -19.474000930786133,28 C-19.474000930786133,39.176998138427734 -10.413000106811523,48.23699951171875 0.7639999985694885,48.23699951171875 C11.9399995803833,48.23699951171875 21.000999450683594,39.176998138427734 21.000999450683594,28z"></path><path stroke-linecap="butt" stroke-linejoin="miter" fill-opacity="0" stroke-miterlimit="10" stroke="rgb(255,110,64)" stroke-opacity="1" stroke-width="14.807" d=" M21.000999450683594,28 C21.000999450683594,16.822999954223633 11.9399995803833,7.763000011444092 0.7639999985694885,7.763000011444092 C-10.413000106811523,7.763000011444092 -19.474000930786133,16.822999954223633 -19.474000930786133,28 C-19.474000930786133,39.176998138427734 -10.413000106811523,48.23699951171875 0.7639999985694885,48.23699951171875 C11.9399995803833,48.23699951171875 21.000999450683594,39.176998138427734 21.000999450683594,28z"></path></g><g opacity="0.3" transform="matrix(1,0,0,1,201.0330047607422,151.02008056640625)"><path stroke-linecap="butt" stroke-linejoin="miter" fill-opacity="0" stroke-miterlimit="10" stroke="rgb(111,30,5)" stroke-opacity="1" stroke-width="14.807" d=" M21.000999450683594,28 C21.000999450683594,16.822999954223633 11.9399995803833,7.763000011444092 0.7639999985694885,7.763000011444092 C-10.413000106811523,7.763000011444092 -19.474000930786133,16.822999954223633 -19.474000930786133,28 C-19.474000930786133,39.176998138427734 -10.413000106811523,48.23699951171875 0.7639999985694885,48.23699951171875 C11.9399995803833,48.23699951171875 21.000999450683594,39.176998138427734 21.000999450683594,28z"></path></g><g opacity="1" transform="matrix(1,0,0,1,215.03900146484375,145.51309204101562)"><path fill="rgb(209,71,29)" fill-opacity="1" d=" M21.000999450683594,28 C21.000999450683594,16.822999954223633 11.9399995803833,7.763000011444092 0.7639999985694885,7.763000011444092 C-10.413000106811523,7.763000011444092 -19.474000930786133,16.822999954223633 -19.474000930786133,28 C-19.474000930786133,39.176998138427734 -10.413000106811523,48.23699951171875 0.7639999985694885,48.23699951171875 C11.9399995803833,48.23699951171875 21.000999450683594,39.176998138427734 21.000999450683594,28z"></path><path stroke-linecap="butt" stroke-linejoin="miter" fill-opacity="0" stroke-miterlimit="10" stroke="rgb(255,110,64)" stroke-opacity="1" stroke-width="14.807" d=" M21.000999450683594,28 C21.000999450683594,16.822999954223633 11.9399995803833,7.763000011444092 0.7639999985694885,7.763000011444092 C-10.413000106811523,7.763000011444092 -19.474000930786133,16.822999954223633 -19.474000930786133,28 C-19.474000930786133,39.176998138427734 -10.413000106811523,48.23699951171875 0.7639999985694885,48.23699951171875 C11.9399995803833,48.23699951171875 21.000999450683594,39.176998138427734 21.000999450683594,28z"></path></g><g opacity="0.3" transform="matrix(1,0,0,1,417.9490051269531,203.06103515625)"><path stroke-linecap="butt" stroke-linejoin="miter" fill-opacity="0" stroke-miterlimit="10" stroke="rgb(111,30,5)" stroke-opacity="1" stroke-width="14.807" d=" M21.000999450683594,28 C21.000999450683594,16.822999954223633 11.9399995803833,7.763000011444092 0.7639999985694885,7.763000011444092 C-10.413000106811523,7.763000011444092 -19.474000930786133,16.822999954223633 -19.474000930786133,28 C-19.474000930786133,39.176998138427734 -10.413000106811523,48.23699951171875 0.7639999985694885,48.23699951171875 C11.9399995803833,48.23699951171875 21.000999450683594,39.176998138427734 21.000999450683594,28z"></path></g><g opacity="1" transform="matrix(1,0,0,1,431.9429931640625,198.74703979492188)"><path fill="rgb(209,71,29)" fill-opacity="1" d=" M21.000999450683594,28 C21.000999450683594,16.822999954223633 11.9399995803833,7.763000011444092 0.7639999985694885,7.763000011444092 C-10.413000106811523,7.763000011444092 -19.474000930786133,16.822999954223633 -19.474000930786133,28 C-19.474000930786133,39.176998138427734 -10.413000106811523,48.23699951171875 0.7639999985694885,48.23699951171875 C11.9399995803833,48.23699951171875 21.000999450683594,39.176998138427734 21.000999450683594,28z"></path><path stroke-linecap="butt" stroke-linejoin="miter" fill-opacity="0" stroke-miterlimit="10" stroke="rgb(255,110,64)" stroke-opacity="1" stroke-width="14.807" d=" M21.000999450683594,28 C21.000999450683594,16.822999954223633 11.9399995803833,7.763000011444092 0.7639999985694885,7.763000011444092 C-10.413000106811523,7.763000011444092 -19.474000930786133,16.822999954223633 -19.474000930786133,28 C-19.474000930786133,39.176998138427734 -10.413000106811523,48.23699951171875 0.7639999985694885,48.23699951171875 C11.9399995803833,48.23699951171875 21.000999450683594,39.176998138427734 21.000999450683594,28z"></path></g><g opacity="0.4" transform="matrix(1,0,0,1,89.56099700927734,238.99403381347656)"><path stroke-linecap="butt" stroke-linejoin="miter" fill-opacity="0" stroke-miterlimit="10" stroke="rgb(111,30,5)" stroke-opacity="1" stroke-width="14.807" d=" M21.000999450683594,28 C21.000999450683594,16.822999954223633 11.9399995803833,7.763000011444092 0.7639999985694885,7.763000011444092 C-10.413000106811523,7.763000011444092 -19.474000930786133,16.822999954223633 -19.474000930786133,28 C-19.474000930786133,39.176998138427734 -10.413000106811523,48.23699951171875 0.7639999985694885,48.23699951171875 C11.9399995803833,48.23699951171875 21.000999450683594,39.176998138427734 21.000999450683594,28z"></path></g><g opacity="1" transform="matrix(1,0,0,1,104.33399963378906,233.32803344726562)"><path fill="rgb(209,71,29)" fill-opacity="1" d=" M21.000999450683594,28 C21.000999450683594,16.822999954223633 11.9399995803833,7.763000011444092 0.7639999985694885,7.763000011444092 C-10.413000106811523,7.763000011444092 -19.474000930786133,16.822999954223633 -19.474000930786133,28 C-19.474000930786133,39.176998138427734 -10.413000106811523,48.23699951171875 0.7639999985694885,48.23699951171875 C11.9399995803833,48.23699951171875 21.000999450683594,39.176998138427734 21.000999450683594,28z"></path><path stroke-linecap="butt" stroke-linejoin="miter" fill-opacity="0" stroke-miterlimit="10" stroke="rgb(255,110,64)" stroke-opacity="1" stroke-width="14.807" d=" M21.000999450683594,28 C21.000999450683594,16.822999954223633 11.9399995803833,7.763000011444092 0.7639999985694885,7.763000011444092 C-10.413000106811523,7.763000011444092 -19.474000930786133,16.822999954223633 -19.474000930786133,28 C-19.474000930786133,39.176998138427734 -10.413000106811523,48.23699951171875 0.7639999985694885,48.23699951171875 C11.9399995803833,48.23699951171875 21.000999450683594,39.176998138427734 21.000999450683594,28z"></path></g></g></g></g></svg>