<svg width="400" height="310" viewBox="0 0 400 310" fill="none" xmlns="http://www.w3.org/2000/svg">
<g clip-path="url(#clip0_9982_147038)">
<path d="M187.535 286.022L322.317 208.211C326.129 206.015 325.653 202.168 321.248 199.622L229.48 146.66C225.075 144.115 218.415 143.848 214.603 146.044L79.821 223.855C76.0089 226.051 76.4854 229.898 80.8902 232.443L172.659 285.406C177.064 287.951 183.723 288.218 187.535 286.022Z" fill="#EEEEEE"/>
<path d="M48.2552 86.0046L183.026 8.18255C184.595 7.27602 186.187 7.13656 187.593 7.62469L187.837 7.70604C187.861 7.70604 187.872 7.71766 187.895 7.72929L192.765 9.58883L188.395 11.7273C188.418 11.8087 188.442 11.8784 188.453 11.9598L210.408 111.887C211.512 116.885 209.304 122.731 205.491 124.927L73.9518 200.866L74.4167 206.445L69.0937 204.376C67.3039 203.539 65.8744 201.645 65.2817 198.949L43.3274 99.0214C42.2233 94.0238 44.4315 88.1779 48.2436 85.9813L48.2552 86.0046Z" fill="#1E40AF"/>
<path d="M48.2552 86.0046L183.026 8.18255C184.595 7.27602 186.187 7.13656 187.593 7.62469L187.837 7.70604C187.861 7.70604 187.872 7.71766 187.895 7.72929L192.765 9.58883L188.395 11.7273C188.418 11.8087 188.442 11.8784 188.453 11.9598L202.923 77.8226L136.979 129.204L43.9899 91.374C44.8848 89.0612 46.3724 87.0854 48.2436 86.0046H48.2552Z" fill="#1E40AF"/>
<path d="M53.3341 101.357L43.0717 96.9869C42.8857 93.0121 44.5245 88.9095 47.2324 86.7129L63.4686 93.5467L53.3341 101.357Z" fill="#1E40AF"/>
<path d="M79.112 205.921L213.894 128.111C217.706 125.914 219.903 120.068 218.81 115.071L196.856 15.1434C195.752 10.1458 191.777 7.86788 187.965 10.0761L53.1714 87.8865C49.3593 90.0831 47.1627 95.929 48.2552 100.927L70.2095 200.854C71.3136 205.851 75.2884 208.129 79.1004 205.921H79.112Z" fill="#C8EAF5"/>
<path d="M82.0292 198.495L208.781 125.346C212.267 123.335 214.278 117.989 213.278 113.41L193.195 21.9664C192.196 17.3872 188.546 15.3185 185.06 17.3291L58.3084 90.479C54.8217 92.4897 52.8111 97.8359 53.8106 102.415L73.8937 193.858C74.8932 198.437 78.5426 200.506 82.0292 198.495Z" fill="white"/>
<path d="M82.0292 198.495L208.781 125.346C212.267 123.335 214.278 117.989 213.278 113.41L193.195 21.9664C192.196 17.3872 188.546 15.3185 185.06 17.3291L58.3084 90.479C54.8217 92.4897 52.8111 97.8359 53.8106 102.415L73.8937 193.858C74.8932 198.437 78.5426 200.506 82.0292 198.495Z" fill="#1E40AF"/>
<path d="M77.2525 209.317L95.6736 206.888L214.603 138.224C218.415 136.027 225.075 136.295 229.48 138.84L313.752 187.479L324.898 186.003V192.325C324.967 193.789 324.142 195.196 322.341 196.23L187.558 274.04C183.746 276.237 177.087 275.97 172.682 273.425L80.9135 220.462C78.438 219.033 77.206 217.185 77.2757 215.465V209.328L77.2525 209.317Z" fill="#1E40AF"/>
<path d="M166.604 165.93L175.053 161.049H267.949L313.74 187.466L324.886 185.99V192.312C324.956 193.777 324.13 195.183 322.329 196.217L187.547 274.028C185.536 275.19 182.724 275.655 179.865 275.469L166.615 165.918L166.604 165.93Z" fill="#1E40AF"/>
<path d="M319.935 186.653L324.874 186.002V192.324C324.944 193.789 324.119 195.195 322.317 196.229L319.947 197.601V186.653H319.935Z" fill="#0083CA"/>
<path d="M186.175 274.679C182.561 276.05 177.389 275.748 173.542 273.889V259.791H186.175V274.679Z" fill="#1E40AF"/>
<path d="M187.535 267.728L322.317 189.918C326.129 187.721 325.653 183.875 321.248 181.329L229.48 128.355C225.075 125.81 218.415 125.543 214.603 127.74L79.821 205.55C76.0089 207.746 76.4854 211.593 80.8902 214.139L172.659 267.112C177.064 269.658 183.723 269.925 187.535 267.728Z" fill="#C8EAF5"/>
<path d="M80.8902 211.838L172.659 264.812C177.064 267.357 183.723 267.624 187.535 265.428L322.317 187.617C323.573 186.897 324.351 186.002 324.688 185.025C325.281 186.827 324.526 188.652 322.317 189.93L187.535 267.74C183.723 269.937 177.064 269.67 172.659 267.124L80.8902 214.151C77.9266 212.442 76.7527 210.141 77.4501 208.154C77.8801 209.467 79.0307 210.768 80.8902 211.838Z" fill="white"/>
<path d="M264.985 164.153L271.087 160.632C271.575 160.353 271.517 159.853 270.947 159.528L263.753 155.367C263.184 155.042 262.335 155.007 261.847 155.286L255.746 158.807C255.258 159.086 255.316 159.586 255.885 159.911L263.079 164.072C263.649 164.397 264.497 164.432 264.985 164.153Z" fill="#93C5FD"/>
<path d="M255.571 169.593L261.673 166.071C262.161 165.792 262.103 165.293 261.533 164.967L254.339 160.807C253.77 160.481 252.921 160.446 252.433 160.725L246.332 164.247C245.844 164.526 245.902 165.025 246.471 165.351L253.665 169.512C254.235 169.837 255.083 169.872 255.571 169.593Z" fill="#93C5FD"/>
<path d="M246.157 175.03L252.259 171.509C252.747 171.23 252.689 170.73 252.12 170.405L244.925 166.244C244.356 165.919 243.508 165.884 243.019 166.163L236.918 169.684C236.43 169.963 236.488 170.463 237.057 170.788L244.251 174.949C244.821 175.274 245.669 175.309 246.157 175.03Z" fill="#93C5FD"/>
<path d="M233.129 170.546L239.231 167.024C239.719 166.745 239.661 166.246 239.091 165.92L233.048 162.433C232.478 162.108 231.63 162.073 231.142 162.352L225.04 165.874C224.552 166.153 224.61 166.652 225.179 166.978L231.223 170.464C231.792 170.79 232.641 170.825 233.129 170.546Z" fill="#93C5FD"/>
<path d="M223.715 175.973L229.817 172.452C230.305 172.173 230.247 171.673 229.677 171.348L223.634 167.861C223.064 167.536 222.216 167.501 221.728 167.78L215.626 171.301C215.138 171.58 215.196 172.08 215.765 172.405L221.809 175.892C222.378 176.218 223.227 176.252 223.715 175.973Z" fill="#93C5FD"/>
<path d="M214.301 181.411L220.403 177.889C220.891 177.611 220.833 177.111 220.263 176.785L214.22 173.299C213.65 172.973 212.802 172.938 212.314 173.217L206.212 176.739C205.724 177.018 205.782 177.518 206.351 177.843L212.395 181.33C212.964 181.655 213.813 181.69 214.301 181.411Z" fill="#93C5FD"/>
<path d="M204.875 186.85L210.977 183.329C211.465 183.05 211.407 182.55 210.838 182.225L204.794 178.738C204.225 178.413 203.376 178.378 202.888 178.657L196.786 182.178C196.298 182.457 196.356 182.957 196.926 183.282L202.969 186.769C203.539 187.094 204.387 187.129 204.875 186.85Z" fill="#93C5FD"/>
<path d="M195.461 192.29L201.563 188.768C202.051 188.489 201.993 187.99 201.424 187.664L195.38 184.178C194.811 183.852 193.962 183.817 193.474 184.096L187.372 187.618C186.884 187.897 186.942 188.396 187.512 188.722L193.555 192.209C194.125 192.534 194.973 192.569 195.461 192.29Z" fill="#93C5FD"/>
<path d="M186.048 197.729L192.149 194.208C192.637 193.929 192.579 193.429 192.01 193.104L185.966 189.617C185.397 189.292 184.548 189.257 184.06 189.536L177.958 193.057C177.47 193.336 177.528 193.836 178.098 194.161L184.141 197.648C184.711 197.973 185.559 198.008 186.048 197.729Z" fill="#93C5FD"/>
<path d="M176.622 203.157L182.724 199.636C183.212 199.357 183.154 198.857 182.584 198.531L176.541 195.045C175.971 194.719 175.123 194.685 174.635 194.963L168.533 198.485C168.045 198.764 168.103 199.264 168.672 199.589L174.716 203.076C175.285 203.401 176.134 203.436 176.622 203.157Z" fill="#93C5FD"/>
<path d="M167.208 208.597L173.31 205.075C173.798 204.796 173.74 204.296 173.17 203.971L167.127 200.484C166.557 200.159 165.709 200.124 165.221 200.403L159.119 203.924C158.631 204.203 158.689 204.703 159.258 205.029L165.302 208.515C165.871 208.841 166.72 208.875 167.208 208.597Z" fill="#93C5FD"/>
<path d="M157.794 214.036L163.896 210.514C164.384 210.236 164.326 209.736 163.756 209.41L157.713 205.924C157.143 205.598 156.295 205.563 155.807 205.842L149.705 209.364C149.217 209.643 149.275 210.143 149.844 210.468L155.888 213.955C156.458 214.28 157.306 214.315 157.794 214.036Z" fill="#93C5FD"/>
<path d="M148.368 219.473L154.47 215.952C154.958 215.673 154.9 215.173 154.331 214.848L148.287 211.361C147.718 211.036 146.869 211.001 146.381 211.28L140.279 214.801C139.791 215.08 139.849 215.58 140.419 215.905L146.462 219.392C147.032 219.718 147.88 219.752 148.368 219.473Z" fill="#93C5FD"/>
<path d="M219.252 167.966L225.354 164.444C225.842 164.165 225.784 163.665 225.214 163.34L219.171 159.853C218.601 159.528 217.753 159.493 217.265 159.772L211.163 163.294C210.675 163.572 210.733 164.072 211.302 164.398L217.346 167.884C217.916 168.21 218.764 168.245 219.252 167.966Z" fill="#93C5FD"/>
<path d="M228.817 162.444L234.919 158.923C235.407 158.644 235.349 158.144 234.779 157.819L228.736 154.332C228.166 154.006 227.318 153.972 226.83 154.251L220.728 157.772C220.24 158.051 220.298 158.551 220.867 158.876L226.911 162.363C227.481 162.688 228.329 162.723 228.817 162.444Z" fill="#93C5FD"/>
<path d="M238.382 156.924L251.515 149.346C252.003 149.068 251.945 148.568 251.376 148.242L245.332 144.756C244.763 144.43 243.914 144.395 243.426 144.674L230.293 152.252C229.805 152.531 229.863 153.031 230.433 153.356L236.476 156.843C237.046 157.168 237.894 157.203 238.382 156.924Z" fill="#93C5FD"/>
<path d="M231.699 150.194L242.357 144.046C242.845 143.767 242.787 143.267 242.217 142.942L236.174 139.455C235.604 139.13 234.756 139.095 234.268 139.374L223.61 145.522C223.122 145.801 223.18 146.3 223.75 146.626L229.793 150.112C230.363 150.438 231.211 150.473 231.699 150.194Z" fill="#93C5FD"/>
<path d="M209.838 173.403L215.94 169.882C216.428 169.603 216.37 169.103 215.8 168.778L209.757 165.291C209.187 164.965 208.339 164.931 207.851 165.21L201.749 168.731C201.261 169.01 201.319 169.51 201.889 169.835L207.932 173.322C208.502 173.647 209.35 173.682 209.838 173.403Z" fill="#93C5FD"/>
<path d="M200.424 178.843L206.526 175.321C207.014 175.042 206.956 174.542 206.386 174.217L200.343 170.73C199.773 170.405 198.925 170.37 198.437 170.649L192.335 174.171C191.847 174.449 191.905 174.949 192.475 175.275L198.518 178.761C199.088 179.087 199.936 179.122 200.424 178.843Z" fill="#93C5FD"/>
<path d="M190.999 184.27L197.1 180.749C197.588 180.47 197.53 179.97 196.961 179.645L190.917 176.158C190.348 175.833 189.499 175.798 189.011 176.077L182.91 179.598C182.421 179.877 182.48 180.377 183.049 180.702L189.093 184.189C189.662 184.514 190.51 184.549 190.999 184.27Z" fill="#93C5FD"/>
<path d="M181.585 189.71L187.686 186.188C188.174 185.909 188.116 185.41 187.547 185.084L181.503 181.598C180.934 181.272 180.085 181.237 179.597 181.516L173.496 185.038C173.007 185.317 173.066 185.816 173.635 186.142L179.679 189.628C180.248 189.954 181.097 189.989 181.585 189.71Z" fill="#93C5FD"/>
<path d="M172.171 195.149L178.272 191.628C178.76 191.349 178.702 190.849 178.133 190.524L172.089 187.037C171.52 186.712 170.671 186.677 170.183 186.956L164.082 190.477C163.594 190.756 163.652 191.256 164.221 191.581L170.265 195.068C170.834 195.393 171.683 195.428 172.171 195.149Z" fill="#93C5FD"/>
<path d="M162.745 200.589L168.847 197.067C169.335 196.788 169.277 196.289 168.707 195.963L162.664 192.476C162.094 192.151 161.246 192.116 160.758 192.395L154.656 195.917C154.168 196.196 154.226 196.695 154.796 197.021L160.839 200.507C161.409 200.833 162.257 200.868 162.745 200.589Z" fill="#93C5FD"/>
<path d="M153.331 206.028L159.433 202.507C159.921 202.228 159.863 201.728 159.293 201.403L153.25 197.916C152.68 197.59 151.832 197.556 151.344 197.835L145.242 201.356C144.754 201.635 144.812 202.135 145.382 202.46L151.425 205.947C151.995 206.272 152.843 206.307 153.331 206.028Z" fill="#93C5FD"/>
<path d="M143.917 211.466L150.019 207.944C150.507 207.665 150.449 207.165 149.879 206.84L143.836 203.353C143.266 203.028 142.418 202.993 141.93 203.272L135.828 206.794C135.34 207.072 135.398 207.572 135.968 207.898L142.011 211.384C142.581 211.71 143.429 211.745 143.917 211.466Z" fill="#93C5FD"/>
<path d="M134.503 216.893L140.605 213.372C141.093 213.093 141.035 212.593 140.465 212.268L134.422 208.781C133.852 208.456 133.004 208.421 132.516 208.7L126.414 212.221C125.926 212.5 125.984 213 126.554 213.325L132.597 216.812C133.167 217.137 134.015 217.172 134.503 216.893Z" fill="#93C5FD"/>
<path d="M117.756 226.564L131.063 218.882C131.551 218.603 131.493 218.103 130.924 217.778L124.88 214.291C124.311 213.965 123.462 213.931 122.974 214.21L109.667 221.892C109.179 222.171 109.237 222.67 109.806 222.996L115.85 226.483C116.419 226.808 117.268 226.843 117.756 226.564Z" fill="#93C5FD"/>
<path d="M99.4159 215.976L110.643 209.491C111.131 209.212 111.073 208.712 110.503 208.387L104.46 204.9C103.89 204.575 103.042 204.54 102.554 204.819L91.3269 211.304C90.8388 211.583 90.8969 212.083 91.4664 212.408L97.5099 215.895C98.0794 216.22 98.9278 216.255 99.4159 215.976Z" fill="#93C5FD"/>
<path d="M193.346 172.335L199.448 168.813C199.936 168.534 199.878 168.035 199.308 167.709L193.265 164.223C192.695 163.897 191.847 163.862 191.359 164.141L185.257 167.663C184.769 167.942 184.827 168.441 185.397 168.767L191.44 172.253C192.01 172.579 192.858 172.614 193.346 172.335Z" fill="#93C5FD"/>
<path d="M202.993 166.768L209.094 163.247C209.582 162.968 209.524 162.468 208.955 162.143L202.911 158.656C202.342 158.331 201.493 158.296 201.005 158.575L194.904 162.096C194.415 162.375 194.474 162.875 195.043 163.2L201.087 166.687C201.656 167.012 202.505 167.047 202.993 166.768Z" fill="#93C5FD"/>
<path d="M212.651 161.188L218.752 157.667C219.24 157.388 219.182 156.888 218.613 156.563L212.569 153.076C212 152.751 211.151 152.716 210.663 152.995L204.562 156.516C204.074 156.795 204.132 157.295 204.701 157.62L210.745 161.107C211.314 161.432 212.163 161.467 212.651 161.188Z" fill="#93C5FD"/>
<path d="M222.297 155.622L228.399 152.1C228.887 151.821 228.829 151.322 228.259 150.996L222.216 147.51C221.646 147.184 220.798 147.149 220.31 147.428L214.208 150.95C213.72 151.229 213.778 151.728 214.347 152.054L220.391 155.541C220.961 155.866 221.809 155.901 222.297 155.622Z" fill="#93C5FD"/>
<path d="M183.932 177.774L190.034 174.253C190.522 173.974 190.464 173.474 189.894 173.149L183.851 169.662C183.281 169.337 182.433 169.302 181.945 169.581L175.843 173.102C175.355 173.381 175.413 173.881 175.983 174.206L182.026 177.693C182.596 178.018 183.444 178.053 183.932 177.774Z" fill="#93C5FD"/>
<path d="M174.507 183.214L180.608 179.692C181.097 179.413 181.038 178.914 180.469 178.588L174.425 175.101C173.856 174.776 173.008 174.741 172.519 175.02L166.418 178.542C165.93 178.821 165.988 179.32 166.557 179.646L172.601 183.132C173.17 183.458 174.019 183.493 174.507 183.214Z" fill="#93C5FD"/>
<path d="M165.093 188.653L171.194 185.132C171.683 184.853 171.624 184.353 171.055 184.028L165.011 180.541C164.442 180.215 163.593 180.181 163.105 180.46L157.004 183.981C156.516 184.26 156.574 184.76 157.143 185.085L163.187 188.572C163.756 188.897 164.605 188.932 165.093 188.653Z" fill="#93C5FD"/>
<path d="M155.679 194.091L161.78 190.569C162.269 190.29 162.21 189.79 161.641 189.465L155.597 185.978C155.028 185.653 154.18 185.618 153.691 185.897L147.59 189.419C147.102 189.697 147.16 190.197 147.729 190.523L153.773 194.009C154.342 194.335 155.191 194.37 155.679 194.091Z" fill="#93C5FD"/>
<path d="M146.253 199.518L152.355 195.997C152.843 195.718 152.785 195.218 152.215 194.893L146.172 191.406C145.602 191.081 144.754 191.046 144.266 191.325L138.164 194.846C137.676 195.125 137.734 195.625 138.304 195.95L144.347 199.437C144.917 199.762 145.765 199.797 146.253 199.518Z" fill="#93C5FD"/>
<path d="M136.839 204.958L142.941 201.436C143.429 201.157 143.371 200.658 142.801 200.332L136.758 196.846C136.188 196.52 135.34 196.485 134.852 196.764L128.75 200.286C128.262 200.565 128.32 201.064 128.89 201.39L134.933 204.876C135.503 205.202 136.351 205.237 136.839 204.958Z" fill="#93C5FD"/>
<path d="M127.425 210.397L133.527 206.876C134.015 206.597 133.957 206.097 133.388 205.772L127.344 202.285C126.774 201.96 125.926 201.925 125.438 202.204L119.336 205.725C118.848 206.004 118.906 206.504 119.476 206.829L125.519 210.316C126.089 210.641 126.937 210.676 127.425 210.397Z" fill="#93C5FD"/>
<path d="M118.011 215.837L124.113 212.315C124.601 212.036 124.543 211.537 123.974 211.211L117.93 207.724C117.361 207.399 116.512 207.364 116.024 207.643L109.922 211.165C109.434 211.444 109.492 211.943 110.062 212.269L116.105 215.755C116.675 216.081 117.523 216.116 118.011 215.837Z" fill="#93C5FD"/>
<path d="M108.586 221.276L114.687 217.755C115.176 217.476 115.117 216.976 114.548 216.651L108.504 213.164C107.935 212.839 107.087 212.804 106.598 213.083L100.497 216.604C100.009 216.883 100.067 217.383 100.636 217.708L106.68 221.195C107.249 221.52 108.098 221.555 108.586 221.276Z" fill="#93C5FD"/>
<path d="M198.309 158.888L204.411 155.366C204.899 155.087 204.841 154.587 204.271 154.262L198.228 150.775C197.658 150.45 196.81 150.415 196.322 150.694L190.22 154.215C189.732 154.494 189.79 154.994 190.359 155.32L196.403 158.806C196.972 159.132 197.821 159.166 198.309 158.888Z" fill="#93C5FD"/>
<path d="M207.676 153.483L213.778 149.962C214.266 149.683 214.208 149.183 213.639 148.858L207.595 145.371C207.026 145.046 206.177 145.011 205.689 145.29L199.587 148.811C199.099 149.09 199.157 149.59 199.727 149.915L205.77 153.402C206.34 153.727 207.188 153.762 207.676 153.483Z" fill="#93C5FD"/>
<path d="M217.044 148.067L223.146 144.546C223.634 144.267 223.576 143.767 223.006 143.442L216.963 139.955C216.393 139.63 215.545 139.595 215.056 139.874L208.955 143.395C208.467 143.674 208.525 144.174 209.094 144.499L215.138 147.986C215.707 148.311 216.556 148.346 217.044 148.067Z" fill="#93C5FD"/>
<path d="M226.411 142.663L232.513 139.141C233.001 138.862 232.943 138.363 232.373 138.037L226.33 134.551C225.76 134.225 224.912 134.19 224.424 134.469L218.322 137.991C217.834 138.27 217.892 138.77 218.462 139.095L224.505 142.582C225.075 142.907 225.923 142.942 226.411 142.663Z" fill="#93C5FD"/>
<path d="M216.777 137.096L222.878 133.575C223.366 133.296 223.308 132.796 222.739 132.471L220.74 131.32C220.17 130.995 219.322 130.96 218.834 131.239L212.732 134.76C212.244 135.039 212.302 135.539 212.871 135.864L214.87 137.015C215.44 137.34 216.288 137.375 216.777 137.096Z" fill="#93C5FD"/>
<path d="M204.55 144.151L210.652 140.63C211.14 140.351 211.082 139.851 210.512 139.525L208.513 138.375C207.944 138.049 207.095 138.015 206.607 138.294L200.506 141.815C200.017 142.094 200.075 142.594 200.645 142.919L202.644 144.07C203.213 144.395 204.062 144.43 204.55 144.151Z" fill="#93C5FD"/>
<path d="M195.217 149.544L201.319 146.022C201.807 145.743 201.749 145.243 201.18 144.918L199.181 143.767C198.611 143.442 197.763 143.407 197.275 143.686L191.173 147.208C190.685 147.487 190.743 147.986 191.312 148.312L193.311 149.462C193.881 149.788 194.729 149.823 195.217 149.544Z" fill="#93C5FD"/>
<path d="M185.885 154.936L191.986 151.415C192.475 151.136 192.417 150.636 191.847 150.311L189.848 149.16C189.279 148.835 188.43 148.8 187.942 149.079L181.84 152.6C181.352 152.879 181.41 153.379 181.98 153.704L183.979 154.855C184.548 155.18 185.397 155.215 185.885 154.936Z" fill="#93C5FD"/>
<path d="M176.552 160.317L182.654 156.796C183.142 156.517 183.084 156.017 182.514 155.691L180.515 154.541C179.946 154.215 179.097 154.181 178.609 154.46L172.508 157.981C172.02 158.26 172.078 158.76 172.647 159.085L174.646 160.236C175.216 160.561 176.064 160.596 176.552 160.317Z" fill="#93C5FD"/>
<path d="M124.462 190.395L130.563 186.874C131.051 186.595 130.993 186.095 130.424 185.77L128.425 184.619C127.855 184.294 127.007 184.259 126.519 184.538L120.417 188.059C119.929 188.338 119.987 188.838 120.557 189.163L122.556 190.314C123.125 190.639 123.974 190.674 124.462 190.395Z" fill="#93C5FD"/>
<path d="M115.129 195.788L121.231 192.266C121.719 191.987 121.661 191.488 121.091 191.162L119.092 190.012C118.523 189.686 117.674 189.651 117.186 189.93L111.085 193.452C110.596 193.731 110.655 194.23 111.224 194.556L113.223 195.706C113.793 196.032 114.641 196.067 115.129 195.788Z" fill="#93C5FD"/>
<path d="M105.797 201.169L111.898 197.647C112.386 197.368 112.328 196.868 111.759 196.543L109.76 195.392C109.19 195.067 108.342 195.032 107.854 195.311L101.752 198.833C101.264 199.112 101.322 199.611 101.891 199.937L103.89 201.087C104.46 201.413 105.308 201.448 105.797 201.169Z" fill="#93C5FD"/>
<path d="M96.4639 206.561L102.566 203.04C103.054 202.761 102.996 202.261 102.426 201.936L100.427 200.785C99.8576 200.46 99.0091 200.425 98.521 200.704L92.4194 204.225C91.9312 204.504 91.9894 205.004 92.5588 205.329L94.5579 206.48C95.1273 206.805 95.9758 206.84 96.4639 206.561Z" fill="#93C5FD"/>
<path d="M188.883 164.327L194.985 160.805C195.473 160.527 195.415 160.027 194.846 159.701L188.802 156.215C188.233 155.889 187.384 155.854 186.896 156.133L180.794 159.655C180.306 159.934 180.364 160.434 180.934 160.759L186.977 164.246C187.547 164.571 188.395 164.606 188.883 164.327Z" fill="#93C5FD"/>
<path d="M179.469 169.766L185.571 166.245C186.059 165.966 186.001 165.466 185.432 165.141L179.388 161.654C178.819 161.329 177.97 161.294 177.482 161.573L171.38 165.094C170.892 165.373 170.95 165.873 171.52 166.198L177.563 169.685C178.133 170.011 178.981 170.045 179.469 169.766Z" fill="#93C5FD"/>
<path d="M170.055 175.206L176.157 171.684C176.645 171.405 176.587 170.906 176.018 170.58L169.974 167.094C169.405 166.768 168.556 166.733 168.068 167.012L161.966 170.534C161.478 170.813 161.536 171.312 162.106 171.638L168.149 175.125C168.719 175.45 169.567 175.485 170.055 175.206Z" fill="#93C5FD"/>
<path d="M160.63 180.634L166.732 177.112C167.22 176.833 167.162 176.333 166.592 176.008L160.549 172.521C159.979 172.196 159.131 172.161 158.642 172.44L152.541 175.962C152.053 176.24 152.111 176.74 152.68 177.066L158.724 180.552C159.293 180.878 160.142 180.913 160.63 180.634Z" fill="#93C5FD"/>
<path d="M151.216 186.073L157.318 182.552C157.806 182.273 157.748 181.773 157.178 181.447L151.135 177.961C150.565 177.635 149.717 177.601 149.229 177.879L143.127 181.401C142.639 181.68 142.697 182.18 143.266 182.505L149.31 185.992C149.879 186.317 150.728 186.352 151.216 186.073Z" fill="#93C5FD"/>
<path d="M141.802 191.511L147.904 187.989C148.392 187.71 148.334 187.21 147.764 186.885L141.721 183.398C141.151 183.073 140.303 183.038 139.815 183.317L133.713 186.838C133.225 187.117 133.283 187.617 133.852 187.943L139.896 191.429C140.465 191.755 141.314 191.79 141.802 191.511Z" fill="#93C5FD"/>
<path d="M132.388 196.95L138.49 193.429C138.978 193.15 138.92 192.65 138.35 192.324L132.307 188.838C131.737 188.512 130.889 188.477 130.401 188.756L124.299 192.278C123.811 192.557 123.869 193.057 124.438 193.382L130.482 196.869C131.051 197.194 131.9 197.229 132.388 196.95Z" fill="#93C5FD"/>
<path d="M122.962 202.389L129.064 198.868C129.552 198.589 129.494 198.089 128.925 197.764L122.881 194.277C122.312 193.952 121.463 193.917 120.975 194.196L114.873 197.717C114.385 197.996 114.443 198.496 115.013 198.821L121.056 202.308C121.626 202.634 122.474 202.668 122.962 202.389Z" fill="#93C5FD"/>
<path d="M113.549 207.829L119.65 204.307C120.138 204.028 120.08 203.529 119.511 203.203L113.467 199.717C112.898 199.391 112.049 199.356 111.561 199.635L105.459 203.157C104.971 203.436 105.029 203.936 105.599 204.261L111.642 207.748C112.212 208.073 113.06 208.108 113.549 207.829Z" fill="#93C5FD"/>
<path d="M242.729 165.001L260.685 154.634C261.173 154.355 261.115 153.855 260.546 153.529L254.502 150.043C253.933 149.717 253.084 149.683 252.596 149.961L234.64 160.328C234.152 160.607 234.21 161.107 234.779 161.433L240.823 164.919C241.392 165.245 242.241 165.279 242.729 165.001Z" fill="#93C5FD"/>
<path d="M127.03 231.794L144.986 221.427C145.475 221.148 145.416 220.648 144.847 220.322L138.803 216.836C138.234 216.51 137.386 216.476 136.897 216.754L118.941 227.121C118.453 227.4 118.511 227.9 119.081 228.226L125.124 231.712C125.694 232.038 126.542 232.072 127.03 231.794Z" fill="#93C5FD"/>
<path d="M164.698 222.066L170.799 218.544C171.287 218.265 171.229 217.765 170.66 217.44L163.466 213.279C162.896 212.954 162.048 212.919 161.56 213.198L155.458 216.719C154.97 216.998 155.028 217.498 155.597 217.823L162.792 221.984C163.361 222.31 164.21 222.344 164.698 222.066Z" fill="#93C5FD"/>
<path d="M233.082 182.573L242.833 176.948C243.322 176.669 243.263 176.17 242.694 175.844L235.5 171.683C234.93 171.358 234.082 171.323 233.594 171.602L223.843 177.227C223.355 177.506 223.413 178.006 223.982 178.331L231.176 182.492C231.746 182.818 232.594 182.852 233.082 182.573Z" fill="#93C5FD"/>
<path d="M173.763 216.825L183.514 211.2C184.002 210.921 183.944 210.422 183.374 210.096L176.18 205.935C175.611 205.61 174.762 205.575 174.274 205.854L164.523 211.479C164.035 211.758 164.093 212.258 164.663 212.583L171.857 216.744C172.426 217.069 173.275 217.104 173.763 216.825Z" fill="#93C5FD"/>
<path d="M219.496 190.419L229.247 184.794C229.735 184.515 229.677 184.015 229.108 183.69L221.914 179.529C221.344 179.204 220.496 179.169 220.007 179.448L210.256 185.073C209.768 185.352 209.826 185.852 210.396 186.177L217.59 190.338C218.16 190.663 219.008 190.698 219.496 190.419Z" fill="#93C5FD"/>
<path d="M219.938 179.494L177.54 203.97C177.017 204.273 177.017 204.772 177.54 205.075L184.885 209.317C185.408 209.619 186.268 209.619 186.791 209.317L229.189 184.84L219.949 179.506L219.938 179.494Z" fill="#93C5FD"/>
<path d="M138.373 231.922L131.586 235.839C131.179 236.071 131.237 236.478 131.702 236.745L134.643 238.442C135.108 238.71 135.805 238.744 136.212 238.512L142.999 234.595C143.406 234.363 143.348 233.956 142.883 233.689L139.942 231.992C139.478 231.725 138.78 231.69 138.373 231.922Z" fill="#93C5FD"/>
<path d="M147.869 226.436L141.081 230.353C140.675 230.585 140.733 230.992 141.198 231.259L144.138 232.956C144.603 233.223 145.3 233.258 145.707 233.026L152.494 229.109C152.901 228.876 152.843 228.47 152.378 228.202L149.438 226.506C148.973 226.238 148.276 226.203 147.869 226.436Z" fill="#93C5FD"/>
<path d="M157.283 220.996L150.495 224.913C150.089 225.146 150.147 225.552 150.612 225.82L153.552 227.516C154.017 227.784 154.714 227.819 155.121 227.586L161.908 223.669C162.315 223.437 162.257 223.03 161.792 222.763L158.852 221.066C158.387 220.799 157.689 220.764 157.283 220.996Z" fill="#93C5FD"/>
<path d="M142.674 223.438L135.886 227.354C135.48 227.587 135.538 227.994 136.003 228.261L138.943 229.958C139.408 230.225 140.105 230.26 140.512 230.028L147.299 226.111C147.706 225.878 147.648 225.472 147.183 225.204L144.243 223.508C143.778 223.24 143.08 223.205 142.674 223.438Z" fill="#93C5FD"/>
<path d="M89.7231 97.0461L150.984 61.6799L150.193 57.7051L88.9444 93.0597L89.7231 97.0461Z" fill="#0083CA"/>
<path d="M111.666 103.764L154.424 79.0783L153.633 75.1035L110.875 99.789L111.666 103.764Z" fill="#0083CA"/>
<path d="M115.71 91.7348L152.704 70.3848L151.913 66.3984L114.92 87.76L115.71 91.7348Z" fill="white"/>
<path d="M91.4548 105.751L109.946 95.0704L109.155 91.084L90.6645 101.765L91.4548 105.751Z" fill="#FF6E40"/>
<path d="M90.2926 136.189L101.113 187.49L139.977 165.071L131.482 148.393L90.2926 136.189Z" fill="#1E40AF"/>
<path d="M210.675 215.045C221.484 208.804 221.484 193.207 210.675 186.966L156.353 155.598L101.124 187.489L148.857 215.045C167.987 226.086 191.556 226.086 210.687 215.045H210.675Z" fill="#0083CA"/>
<path d="M160.851 56.4015L179.958 45.3721L179.144 41.2578L160.037 52.2872L160.851 56.4015Z" fill="#C8EAF5"/>
<path d="M162.548 65.1299L181.654 54.0889L180.841 49.9746L161.734 61.0157L162.548 65.1299Z" fill="white"/>
<path d="M327.547 158.608C336.287 153.75 341.75 143.115 341.796 127.879C341.889 97.7307 320.76 60.8652 294.703 45.7099L275.899 34.7734L274.992 35.2848L188.709 83.8073L210.57 98.0096L218.776 104.018L230.072 115.826L231.885 117.488L243.914 135.7L248.319 147.102L251.585 156.167L254.27 175.192L254.456 176.831L253.479 184.85L250.702 194.776L246.785 201.505L241.09 208.257L327.547 158.608Z" fill="#0083CA"/>
<path d="M176.587 83.4355V86.6316L233.826 119.871C232.862 117.651 231.025 115.803 229.154 113.955L176.587 83.4355Z" fill="#C8EAF5"/>
<path d="M90.3042 132.992L176.587 83.4355L228.829 114.792L235.36 122.405L245.181 139.664L251.353 156.911L253.363 170.393L253.619 183.851L245.181 203.109L234.233 209.501L222.96 210.094L209.443 204.48L102.624 141.639L90.3042 132.992Z" fill="#C8EAF5"/>
<path d="M327.547 158.62C334.869 154.552 339.867 146.428 341.343 134.969L253.34 185.409L250.725 194.788L246.808 201.517L241.113 208.27L327.571 158.62H327.547Z" fill="#1E40AF"/>
<path d="M341.006 137.164C341.506 134.293 341.785 131.201 341.796 127.889C341.796 125.669 341.68 123.415 341.471 121.125L253.747 171.402L254.281 175.18L254.467 176.818L253.491 184.838L252.666 187.79L341.006 137.164Z" fill="#1E40AF"/>
<path d="M90.2926 136.188V132.992L208.083 201.435C232.629 215.707 252.666 204.224 252.759 175.831C252.852 147.438 232.955 112.734 208.409 98.4622L188.697 87.0027V83.8066L208.42 95.2661C234.489 110.421 255.606 147.287 255.513 177.435C255.42 207.583 234.14 219.786 208.072 204.631L90.2809 136.188H90.2926Z" fill="#1E40AF"/>
<path d="M137.304 142.313L190.336 111.387L193.672 113.293L140.64 144.208L137.304 142.313Z" fill="#0083CA"/>
<path d="M138.78 124.659L175.808 103.076L179.132 104.982L142.116 126.565L138.78 124.659Z" fill="#0083CA"/>
<path d="M151.042 125.902L183.072 107.236L186.396 109.131L154.377 127.808L151.042 125.902Z" fill="#0083CA"/>
<path d="M130.04 138.151L146.056 128.818L149.38 130.724L133.364 140.057L130.04 138.151Z" fill="#0083CA"/>
<path d="M141.837 304.025L27.4167 237.918C24.639 236.314 24.9877 233.513 28.1954 231.665C31.4031 229.817 36.2495 229.619 39.0156 231.212L153.436 297.319C156.214 298.922 155.865 301.712 152.657 303.571C149.449 305.419 144.603 305.617 141.837 304.025Z" fill="#EEEEEE"/>
<path d="M18.0609 215.313C18.1538 215.15 18.3398 215.057 18.5257 215.104L24.6158 216.359L22.2565 220.45L18.1073 215.824C17.9795 215.685 17.9563 215.476 18.0492 215.313H18.0609Z" fill="#FF6E40"/>
<path d="M20.4899 218.301C20.4899 217.429 21.1059 216.36 21.8613 215.918C22.21 215.709 22.5238 215.686 22.7678 215.802C29.7876 215.674 36.7144 217.452 42.8044 220.951L43.2461 221.206L35.8195 234.13L33.5764 232.677C28.823 229.598 24.8133 225.507 21.8032 220.707L20.8386 219.161C20.6177 219.01 20.4899 218.719 20.4783 218.312L20.4899 218.301Z" fill="#0083CA"/>
<path d="M34.2854 230.714C34.2854 227.355 36.6331 223.264 39.5386 221.579C42.4442 219.894 44.8035 221.253 44.8151 224.612C44.8151 227.971 42.4674 232.062 39.5619 233.747C36.6563 235.432 34.297 234.073 34.2854 230.714Z" fill="#0083CA"/>
<path d="M80.9135 261.594L35.8312 234.119L43.2577 221.195L89.6883 246.322L80.9135 261.594Z" fill="#0083CA"/>
<path d="M79.0889 257.561C79.0889 253.587 81.8549 248.763 85.2951 246.764C88.7353 244.765 91.5246 246.381 91.5246 250.344C91.5246 254.319 88.7585 259.142 85.3183 261.141C81.8782 263.14 79.0889 261.525 79.0889 257.561Z" fill="#C8EAF5"/>
<path d="M81.6573 259.035C81.6573 255.06 84.4234 250.237 87.8636 248.238C91.2921 246.25 94.0931 247.854 94.0931 251.817C94.0931 255.792 91.327 260.615 87.8868 262.614C84.4583 264.602 81.6573 262.998 81.6573 259.035Z" fill="#C8EAF5"/>
<path d="M92.2683 247.803L83.4965 263.07L143.123 297.33L151.895 282.063L92.2683 247.803Z" fill="#C8EAF5"/>
<path d="M141.279 293.296C141.279 289.322 144.045 284.499 147.485 282.5C150.914 280.512 153.715 282.116 153.715 286.079C153.715 290.054 150.949 294.877 147.509 296.876C144.068 298.875 141.279 297.26 141.279 293.296Z" fill="#C8EAF5"/>
<path d="M143.511 292.006C143.627 289.658 145.498 286.73 147.706 285.451C149.914 284.173 151.611 285.033 151.495 287.381C151.379 289.728 149.508 292.657 147.299 293.935C145.091 295.214 143.394 294.354 143.511 292.006Z" fill="#1E40AF"/>
<path d="M78.6356 257.304C78.6356 253.329 81.4016 248.506 84.8418 246.507C86.2248 245.705 87.5033 245.496 88.5376 245.775C87.4103 244.613 85.5624 244.496 83.482 245.705C80.0535 247.693 77.2758 252.527 77.2758 256.502C77.2758 258.873 78.2869 260.396 79.821 260.814C79.0888 260.059 78.6472 258.873 78.6472 257.304H78.6356Z" fill="white"/>
<path d="M78.6356 257.303C78.6356 253.329 81.4016 248.505 84.8418 246.506C86.5619 245.507 88.1192 245.414 89.2466 246.065L92.6286 248.006L91.0596 250.749C90.804 254.363 88.433 258.5 85.4345 260.534L83.8655 263.277L80.4835 261.336C79.3561 260.685 78.6588 259.291 78.6472 257.315L78.6356 257.303Z" fill="#0083CA"/>
<path d="M82.006 259.246C82.006 255.271 84.7721 250.448 88.2122 248.449C91.6408 246.461 94.4417 248.065 94.4417 252.028C94.4417 256.003 91.6756 260.826 88.2355 262.825C84.8069 264.813 82.006 263.209 82.006 259.246Z" fill="#C8EAF5"/>
<path d="M146.311 293.74L150.1 287.15L162.734 294.414C164.547 295.46 165.174 297.785 164.14 299.598C163.094 301.411 160.769 302.038 158.956 301.004L146.323 293.74H146.311Z" fill="#FF6E40"/>
<path d="M145.521 292.008C145.521 290.299 146.718 288.207 148.194 287.347C149.67 286.487 150.879 287.184 150.879 288.893C150.879 290.601 149.682 292.693 148.206 293.553C146.73 294.413 145.521 293.716 145.521 292.008Z" fill="#FF6E40"/>
<path d="M131.33 269.03L133.202 267.937C134.283 267.31 135.712 267.449 137.235 268.333L143.731 272.063C144.952 272.772 145.963 274.492 145.963 275.91V279.141C145.963 279.687 146.242 280.303 146.637 280.757L146.404 282.256L148.008 281.315C148.241 281.187 148.38 280.919 148.38 280.524V277.293C148.369 274.341 146.288 270.75 143.731 269.286L137.235 265.555C135.061 264.311 133.027 264.114 131.493 264.997L129.622 266.09C128.541 266.717 127.112 266.578 125.589 265.694L99.416 250.655C99.079 250.458 98.7768 250.446 98.556 250.586L96.9637 251.515L98.3468 252.027C98.5444 252.608 98.9511 253.166 99.4276 253.433L125.601 268.472C127.774 269.716 129.808 269.913 131.342 269.03H131.33Z" fill="#0083CA"/>
<path d="M131.586 268.891C132.667 268.264 134.097 268.403 135.619 269.286L142.116 273.017C143.336 273.726 144.336 275.446 144.347 276.864V280.095C144.347 280.862 144.894 281.792 145.568 282.175C146.23 282.559 146.776 282.245 146.776 281.478V278.247C146.765 275.295 144.684 271.704 142.127 270.239L135.631 266.509C133.457 265.265 131.423 265.067 129.889 265.951L128.018 267.043C126.937 267.671 125.508 267.531 123.985 266.648L97.8122 251.609C97.1497 251.225 96.6035 251.539 96.6035 252.306C96.6035 253.073 97.1497 254.003 97.8122 254.387L123.985 269.426C126.159 270.669 128.192 270.867 129.727 269.984L131.598 268.891H131.586Z" fill="#0083CA"/>
<path d="M144.429 277.386V280.617C144.429 280.617 144.44 280.663 144.44 280.687C144.382 280.489 144.347 280.28 144.347 280.094V276.863C144.347 276.77 144.324 276.677 144.312 276.584C144.382 276.863 144.417 277.13 144.417 277.398L144.429 277.386Z" fill="white"/>
<path d="M156.69 309.301L144.719 302.386C143.278 301.549 143.452 300.096 145.126 299.132C146.788 298.167 149.31 298.062 150.763 298.899L162.734 305.814C164.175 306.651 164 308.104 162.327 309.069C160.665 310.033 158.143 310.138 156.69 309.301Z" fill="#EEEEEE"/>
<path d="M383.996 182.364L400 173.124L383.996 163.896L368.004 173.136L383.996 182.364Z" fill="#EEEEEE"/>
<path d="M368.004 162.653L383.996 171.893V153.425L368.004 144.186V162.653Z" fill="#FF9E80"/>
<path d="M383.996 153.425L400 144.185L383.996 134.945L368.004 144.185L383.996 153.425Z" fill="#FF6E40"/>
<path d="M383.996 171.893L400 162.653V144.186L383.996 153.425V171.893Z" fill="#FF6E40"/>
<path d="M17.8168 185.757L35.6336 175.471L17.8168 165.186L0 175.471L17.8168 185.757Z" fill="#EEEEEE"/>
<path d="M0 163.802L17.8168 174.087V153.516L0 143.23V163.802Z" fill="#1E40AF"/>
<path d="M17.8168 153.517L35.6336 143.231L17.8168 132.945L0 143.231L17.8168 153.517Z" fill="#C8EAF5"/>
<path d="M17.8168 174.087L35.6335 163.802V143.23L17.8168 153.516V174.087Z" fill="#0083CA"/>
<path d="M273.272 308.185L291.089 297.899L273.272 287.613L255.455 297.899L273.272 308.185Z" fill="#EEEEEE"/>
<path d="M255.455 286.229L273.272 296.515V275.944L255.455 265.658V286.229Z" fill="#1E40AF"/>
<path d="M273.272 275.944L291.089 265.659L273.272 255.373L255.455 265.659L273.272 275.944Z" fill="#C8EAF5"/>
<path d="M273.272 296.515L291.089 286.229V265.658L273.272 275.944V296.515Z" fill="#0083CA"/>
<path d="M210.14 165.453C225.09 165.453 237.208 158.454 237.208 149.821C237.208 141.188 225.09 134.189 210.14 134.189C195.191 134.189 183.072 141.188 183.072 149.821C183.072 158.454 195.191 165.453 210.14 165.453Z" fill="#0083CA"/>
<path d="M183.061 141.777V136.803H184.49C185.78 134.583 187.93 132.491 190.987 130.725C201.563 124.623 218.706 124.623 229.27 130.725C232.327 132.491 234.477 134.583 235.767 136.803H237.197V141.742C237.22 145.752 234.57 149.773 229.27 152.842C218.694 158.943 201.552 158.943 190.987 152.842C185.699 149.785 183.061 145.787 183.061 141.789V141.777Z" fill="#FF9E80"/>
<path d="M210.14 152.435C225.09 152.435 237.208 145.437 237.208 136.804C237.208 128.17 225.09 121.172 210.14 121.172C195.191 121.172 183.072 128.17 183.072 136.804C183.072 145.437 195.191 152.435 210.14 152.435Z" fill="#FF6E40"/>
<path d="M190.987 147.856C201.563 153.957 218.706 153.957 229.27 147.856C234.338 144.927 236.953 141.138 237.162 137.303C237.394 141.463 234.779 145.671 229.27 148.855C218.694 154.957 201.552 154.957 190.987 148.855C185.478 145.671 182.875 141.475 183.096 137.303C183.305 141.138 185.92 144.927 190.987 147.856Z" fill="white"/>
<path d="M212.325 145.834C211.988 146.241 211.593 146.427 211.221 146.369L201.191 144.579C200.424 144.44 199.994 143.254 200.227 141.929C200.459 140.604 201.273 139.64 202.04 139.779L209.199 141.058C209.815 141.174 210.396 140.721 210.454 140.093L211.651 126.228C211.721 124.903 212.418 123.717 213.22 123.566C214.022 123.427 214.603 124.38 214.534 125.705L213.081 143.696C213.046 144.416 212.813 145.137 212.442 145.66C212.395 145.718 212.36 145.776 212.314 145.823L212.325 145.834Z" fill="white"/>
<path d="M91.6291 112.56C92.1173 113.617 93.3376 113.989 94.3604 113.397C95.3831 112.804 95.8247 111.467 95.3366 110.41C94.8485 109.352 93.6282 108.98 92.6054 109.573C91.5827 110.166 91.141 111.502 91.6291 112.56Z" fill="#FF6E40"/>
<path d="M85.0859 116.337C85.574 117.395 86.7943 117.767 87.8171 117.174C88.8398 116.581 89.2815 115.245 88.7933 114.187C88.3052 113.129 87.0849 112.757 86.0621 113.35C85.0394 113.943 84.5977 115.279 85.0859 116.337Z" fill="white"/>
<path d="M78.5426 120.114C79.0307 121.172 80.251 121.544 81.2738 120.951C82.2965 120.359 82.7382 119.022 82.2501 117.964C81.7619 116.907 80.5416 116.535 79.5189 117.128C78.4961 117.72 78.0545 119.057 78.5426 120.114Z" fill="#C8EAF5"/>
<path d="M71.9993 123.892C72.4874 124.949 73.7078 125.321 74.7305 124.729C75.7533 124.136 76.1949 122.799 75.7068 121.742C75.2187 120.684 73.9983 120.312 72.9756 120.905C71.9528 121.498 71.5112 122.834 71.9993 123.892Z" fill="#FF6E40"/>
<path d="M274.992 35.2848L275.899 34.7734L294.703 45.7099C300.875 49.3011 306.767 54.1243 312.171 59.7727L279.966 78.3682L239.707 55.1238L274.992 35.2848Z" fill="#1E40AF"/>
<path d="M240.579 35.8437L246.425 32.4733L224.889 20.0376C223.866 19.4448 223.866 18.4918 224.889 17.9107L246.89 5.20768C247.912 4.61495 249.563 4.61495 250.574 5.20768L272.11 17.6434L277.956 14.273L256.42 1.83725C252.178 -0.615022 245.286 -0.615022 241.044 1.83725L219.043 14.5403C214.801 16.9926 214.801 20.9673 219.043 23.4196L240.579 35.8553V35.8437Z" fill="#FF6E40"/>
<path d="M231.153 37.3305C231.153 34.2042 233.048 30.5781 235.395 29.2299L274.411 6.70613C275.457 6.10178 276.421 6.05529 277.154 6.47369L323.747 33.5417L278.699 67.4901L232.803 40.8521C232.664 40.7823 232.525 40.7126 232.397 40.6196C231.63 40.0385 231.153 38.8995 231.153 37.3422V37.3305Z" fill="#C8EAF5"/>
<path d="M278.688 67.4893L232.792 40.8513C232.652 40.7816 232.513 40.7119 232.385 40.6189C231.618 40.0378 231.142 38.8988 231.142 37.3414C231.142 35.8538 231.583 34.2499 232.281 32.832L284.603 63.038L278.688 67.5009V67.4893Z" fill="#0083CA"/>
<path d="M281.628 67.363L320.644 44.8392C322.991 43.491 324.886 39.8649 324.886 36.7386C324.886 33.6122 322.991 32.1827 320.644 33.5309L281.628 56.0546C279.281 57.4028 277.386 61.0289 277.386 64.1553C277.386 67.2816 279.281 68.7111 281.628 67.363Z" fill="#0083CA"/>
<path d="M281.163 55.8447L320.179 33.3209C321.26 32.7049 322.236 32.6701 322.98 33.1233C322.306 32.9141 321.504 33.042 320.644 33.5301L281.628 56.0539C279.281 57.402 277.386 61.0281 277.386 64.1545C277.386 65.8397 277.944 67.0252 278.827 67.5598C277.677 67.2111 276.921 65.9095 276.921 63.9453C276.921 60.819 278.816 57.1928 281.163 55.8447Z" fill="white"/>
<path d="M287.474 59.7729L292.17 57.0649C292.634 56.7976 293.018 56.077 293.018 55.4494C293.018 54.8218 292.634 54.5429 292.17 54.8102L287.474 57.5182C287.009 57.7855 286.626 58.506 286.626 59.1336C286.626 59.7612 287.009 60.0402 287.474 59.7729Z" fill="white"/>
<path d="M282.186 27.7428C280.768 26.906 280.78 25.5694 282.221 24.7675C283.651 23.9656 285.963 23.9888 287.381 24.8256C288.799 25.6624 288.788 26.9989 287.346 27.8009C285.917 28.6028 283.604 28.5796 282.186 27.7428Z" fill="#0083CA"/>
<path d="M274.329 32.1588C272.912 31.322 272.923 29.9854 274.364 29.1835C275.794 28.3816 278.107 28.4048 279.525 29.2416C280.943 30.0784 280.931 31.415 279.49 32.2169C278.06 33.0188 275.747 32.9956 274.329 32.1588Z" fill="white"/>
<path d="M266.473 36.5865C265.055 35.7497 265.067 34.4132 266.508 33.6112C267.937 32.8093 270.25 32.8326 271.668 33.6693C273.086 34.5061 273.074 35.8427 271.633 36.6446C270.204 37.4466 267.891 37.4233 266.473 36.5865Z" fill="white"/>
<path d="M359.543 273.099L395.223 252.493C397.408 251.226 397.141 249.018 394.607 247.565L360.159 227.668C357.626 226.204 353.802 226.053 351.617 227.319L315.937 247.925C313.752 249.192 314.019 251.4 316.553 252.853L351.001 272.75C353.535 274.215 357.358 274.366 359.543 273.099Z" fill="#EEEEEE"/>
<path d="M314.461 237.952V225.645H342.063L351.605 220.124C353.79 218.857 357.626 219.02 360.148 220.473L369.05 225.61H396.676V238.255C396.734 239.115 396.258 239.94 395.212 240.544L359.532 261.15C357.347 262.417 353.511 262.254 350.989 260.802L316.541 240.904C315.077 240.068 314.379 238.975 314.461 237.952Z" fill="#1E40AF"/>
<path d="M355.58 219.275C357.184 219.31 358.846 219.717 360.159 220.472L369.062 225.609H396.688V238.254C396.746 239.114 396.269 239.94 395.223 240.544L359.543 261.15C358.486 261.754 357.056 262.033 355.58 261.998V219.275Z" fill="#1E40AF"/>
<path d="M393.561 225.598H396.688V238.254C396.746 239.114 396.269 239.939 395.223 240.544L393.561 241.497V225.586V225.598Z" fill="#0083CA"/>
<path d="M358.997 261.417C357.103 262.23 354.371 262.184 352.163 261.336V246.959H358.997V261.417Z" fill="#0083CA"/>
<path d="M359.543 248.54L395.223 227.934C397.408 226.668 397.141 224.459 394.607 223.007L360.159 203.109C357.626 201.645 353.802 201.494 351.617 202.761L315.937 223.367C313.752 224.634 314.019 226.842 316.553 228.295L351.001 248.192C353.535 249.656 357.358 249.807 359.543 248.54Z" fill="#C8EAF5"/>
<path d="M316.541 225.866L350.989 245.763C353.523 247.228 357.347 247.379 359.532 246.112L395.212 225.506C395.7 225.227 396.06 224.89 396.304 224.541C397.06 225.75 396.711 227.063 395.212 227.935L359.532 248.541C357.347 249.808 353.511 249.645 350.989 248.192L316.541 228.295C314.577 227.156 313.984 225.576 314.833 224.332C315.181 224.89 315.751 225.413 316.541 225.878V225.866Z" fill="white"/>
<path d="M327.594 241.207C327.594 242.125 328.245 243.241 329.035 243.705C329.825 244.17 330.476 243.787 330.476 242.869C330.476 241.951 329.825 240.835 329.035 240.37C328.245 239.905 327.594 240.289 327.594 241.207Z" fill="#C8EAF5"/>
<path d="M322.957 238.535C322.957 239.453 323.607 240.569 324.398 241.034C325.188 241.498 325.839 241.115 325.839 240.197C325.839 239.279 325.188 238.163 324.398 237.698C323.607 237.233 322.957 237.617 322.957 238.535Z" fill="#C8EAF5"/>
<path d="M318.319 235.849C318.319 236.767 318.97 237.883 319.761 238.348C320.551 238.813 321.202 238.429 321.202 237.511C321.202 236.593 320.551 235.477 319.761 235.013C318.97 234.548 318.319 234.931 318.319 235.849Z" fill="#C8EAF5"/>
<path d="M357.428 235.767L374.129 226.132C375.152 225.539 375.024 224.505 373.839 223.819L357.719 214.51C356.533 213.824 354.743 213.755 353.721 214.347L337.02 223.982C335.997 224.575 336.125 225.609 337.31 226.295L353.43 235.604C354.615 236.29 356.405 236.36 357.428 235.767Z" fill="#0083CA"/>
<path d="M355.836 227.69L358.149 226.353C358.288 226.272 358.276 226.133 358.114 226.04L355.882 224.75C355.72 224.657 355.476 224.645 355.324 224.726L353.012 226.063C352.872 226.144 352.884 226.284 353.046 226.377L355.278 227.667C355.441 227.76 355.685 227.771 355.836 227.69Z" fill="#C8EAF5"/>
<path d="M374.129 226.121L374.083 226.144C374.001 226.086 373.931 226.028 373.839 225.981L357.719 216.672C356.533 215.986 354.743 215.916 353.721 216.509L337.066 226.121C336.125 225.446 336.066 224.528 337.02 223.982L353.721 214.347C354.743 213.755 356.533 213.824 357.719 214.51L373.839 223.819C375.024 224.505 375.152 225.539 374.129 226.132V226.121Z" fill="#1E40AF"/>
</g>
<defs>
<clipPath id="clip0_9982_147038">
<rect width="400" height="309.87" fill="white"/>
</clipPath>
</defs>
</svg>
